<?xml version="1.0" encoding="UTF-8"?>
<svg version="1.1" xmlns="http://www.w3.org/2000/svg" width="740" height="274">
<path d="M0 0 C1.30517578 0.556875 1.30517578 0.556875 2.63671875 1.125 C3.36246094 1.45371094 4.08820313 1.78242188 4.8359375 2.12109375 C8.88977093 3.20761103 12.67652675 1.51652952 16.42578125 -0.0546875 C17.67149902 -0.56890259 17.67149902 -0.56890259 18.94238281 -1.09350586 C19.81088867 -1.45452393 20.67939453 -1.81554199 21.57421875 -2.1875 C45.87956134 -12.08700035 71.43017831 -13.91085111 96.109375 -3.69140625 C103.8125132 0.04890707 109.94067297 5.62767301 114.32421875 13 C115.57893396 18.39527539 115.64307033 23.60594525 113.88671875 28.875 C109.32781714 35.4927604 104.16525537 40.38349084 96.19921875 42.375 C68.26246133 45.06122667 38.92754713 31.50191906 14.24609375 19.6328125 C10.05545841 17.90809523 7.87711674 17.38400901 3.42602539 18.83984375 C2.06485574 19.42192649 0.70957618 20.01790865 -0.640625 20.625 C-1.37367859 20.94080521 -2.10673218 21.25661041 -2.86199951 21.58198547 C-4.43002411 22.25767171 -5.99577646 22.93865124 -7.55941772 23.62442017 C-11.6203657 25.4018407 -15.70102525 27.13210298 -19.78515625 28.85546875 C-20.58793503 29.19426559 -21.39071381 29.53306244 -22.21781921 29.88212585 C-39.55579228 37.13219493 -65.24117848 47.86934833 -84.05078125 40.6875 C-90.9099844 37.49442267 -95.53544353 33.31113368 -98.48828125 26.25 C-99.53434303 19.62494206 -98.56955034 14.46833494 -95.05078125 8.6875 C-86.70484903 -2.67224108 -74.49017177 -6.61431034 -61.05078125 -9.3125 C-39.15985904 -12.54486631 -20.11157131 -8.65235334 0 0 Z M-84.05078125 13.0625 C-86.58607509 16.39007317 -87.05078125 18.52008284 -87.05078125 22.6875 C-85.70064049 26.18198197 -84.54711549 27.39537185 -81.31640625 29.296875 C-64.02138146 36.66174201 -39.08566851 23.91566966 -23.05078125 17.6875 C-22.28636719 17.39133789 -21.52195312 17.09517578 -20.734375 16.79003906 C-14.77385981 14.49431308 -14.77385981 14.49431308 -9.05078125 11.6875 C-8.72078125 10.6975 -8.39078125 9.7075 -8.05078125 8.6875 C-10.36137879 7.88990243 -12.67403558 7.09938773 -14.98828125 6.3125 C-15.62830078 6.09078125 -16.26832031 5.8690625 -16.92773438 5.640625 C-38.40347489 -1.62479965 -65.6437481 -1.50973457 -84.05078125 13.0625 Z M32.94921875 5.6875 C31.50869141 6.14962891 31.50869141 6.14962891 30.0390625 6.62109375 C27.99922178 7.2800222 25.97194518 7.97777143 23.94921875 8.6875 C24.27921875 9.6775 24.60921875 10.6675 24.94921875 11.6875 C27.55414253 12.99531873 27.55414253 12.99531873 30.76171875 14.0625 C35.09432202 15.6140047 39.32546626 17.26812047 43.5546875 19.0859375 C50.06233512 21.81781861 56.69191596 23.91807618 63.44921875 25.9375 C65.17785156 26.4634375 65.17785156 26.4634375 66.94140625 27 C73.75620234 29.06508972 79.66906151 30.84517539 86.82421875 30.9375 C88.61472656 30.97617188 88.61472656 30.97617188 90.44140625 31.015625 C95.10109542 30.57975207 98.45310022 29.13374791 101.82421875 25.875 C103.37310422 22.86327826 103.41886044 21.04208352 102.94921875 17.6875 C100.22535981 12.126288 96.4580275 9.20532977 90.94921875 6.6875 C72.00318801 0.24238908 51.99171074 -0.94527811 32.94921875 5.6875 Z " fill="#0FC26B" transform="translate(155.05078125,214.3125)"/>
<path d="M0 0 C4.17726304 0.17269327 6.19327922 0.52286368 9.56323242 3.15161133 C11.69434093 5.97282712 13.57757365 8.80266328 15.39477539 11.82885742 C17.84054949 15.73789957 20.68602526 19.36201031 23.45385742 23.04614258 C24.64231468 24.65776016 25.82848055 26.27106978 27.01245117 27.88598633 C27.61299316 28.70437988 28.21353516 29.52277344 28.83227539 30.3659668 C30.78318067 33.02943857 32.72997653 35.69588344 34.67651367 38.36254883 C35.64089355 39.68005127 35.64089355 39.68005127 36.62475586 41.02416992 C37.86908304 42.72427931 39.11069909 44.42637691 40.34936523 46.13061523 C40.90591797 46.89035645 41.4624707 47.65009766 42.03588867 48.43286133 C42.77415894 49.44546021 42.77415894 49.44546021 43.52734375 50.47851562 C43.91559326 50.95458252 44.30384277 51.43064941 44.70385742 51.92114258 C45.03385742 51.92114258 45.36385742 51.92114258 45.70385742 51.92114258 C46.03385742 35.09114258 46.36385742 18.26114258 46.70385742 0.92114258 C52.97385742 0.92114258 59.24385742 0.92114258 65.70385742 0.92114258 C65.70385742 28.64114258 65.70385742 56.36114258 65.70385742 84.92114258 C59.43385742 84.92114258 53.16385742 84.92114258 46.70385742 84.92114258 C40.78073065 78.99801581 40.78073065 78.99801581 39.14135742 76.01098633 C36.40239717 71.29992844 33.15918507 67.0248495 29.89135742 62.67114258 C28.7026729 61.05482554 27.5151798 59.43763165 26.32885742 57.81958008 C22.73179497 52.94091783 19.07468209 48.1099112 15.39135742 43.29614258 C14.83407959 42.5675 14.27680176 41.83885742 13.70263672 41.08813477 C11.33482525 37.89213185 11.33482525 37.89213185 8.70385742 34.92114258 C8.68839622 35.83862526 8.68839622 35.83862526 8.67262268 36.77464294 C8.56478998 43.11696573 8.450174 49.45913971 8.33154297 55.80126953 C8.28811932 58.17102965 8.24644993 60.54082258 8.20654297 62.91064453 C8.14901974 66.30877591 8.08527439 69.706741 8.02026367 73.10473633 C8.00355118 74.17139023 7.98683868 75.23804413 7.96961975 76.33702087 C7.94967453 77.31796219 7.92972931 78.2989035 7.90917969 79.30957031 C7.89363541 80.17782944 7.87809113 81.04608856 7.86207581 81.94065857 C7.70385742 83.92114258 7.70385742 83.92114258 6.70385742 84.92114258 C5.36118329 85.00746132 4.0141142 85.02820731 2.66870117 85.01879883 C1.85981445 85.01557617 1.05092773 85.01235352 0.2175293 85.0090332 C-0.63260742 85.0006543 -1.48274414 84.99227539 -2.35864258 84.98364258 C-3.21264648 84.97913086 -4.06665039 84.97461914 -4.9465332 84.9699707 C-7.06309921 84.95814631 -9.17962943 84.94021026 -11.29614258 84.92114258 C-11.3192657 74.11656173 -11.33705751 63.31198672 -11.34795475 52.50738621 C-11.35318365 47.49091788 -11.36028141 42.47446643 -11.37158203 37.45800781 C-11.38241068 32.62104564 -11.38841936 27.78409974 -11.39101982 22.94712639 C-11.39287411 21.09745973 -11.3964948 19.247794 -11.40187263 17.39813423 C-11.40908278 14.81667244 -11.41013353 12.23527876 -11.40966797 9.65380859 C-11.41326324 8.88129257 -11.41685852 8.10877655 -11.42056274 7.31285095 C-11.40450532 -0.86090648 -7.16119128 0.14009576 0 0 Z " fill="#FFDE59" transform="translate(600.296142578125,149.078857421875)"/>
<path d="M0 0 C1.91703735 -0.00472824 1.91703735 -0.00472824 3.87280273 -0.009552 C5.27848342 -0.00776222 6.6841638 -0.00571127 8.08984375 -0.00341797 C9.52091488 -0.00409105 10.9519859 -0.00506111 12.38305664 -0.00631714 C15.38591599 -0.00779391 18.38874565 -0.00564023 21.39160156 -0.00097656 C25.24886946 0.00472073 29.10606779 0.00144161 32.96333313 -0.00454903 C35.91947966 -0.00815521 38.87560958 -0.00701579 41.83175659 -0.00442123 C43.25438444 -0.00375212 44.67701378 -0.00457984 46.09963989 -0.00690079 C48.08465549 -0.0094282 50.06967634 -0.00489589 52.0546875 0 C53.75226196 0.00119339 53.75226196 0.00119339 55.48413086 0.00241089 C58.02734375 0.12939453 58.02734375 0.12939453 59.02734375 1.12939453 C59.02734375 6.73939453 59.02734375 12.34939453 59.02734375 18.12939453 C44.50734375 18.12939453 29.98734375 18.12939453 15.02734375 18.12939453 C15.02734375 23.40939453 15.02734375 28.68939453 15.02734375 34.12939453 C28.22734375 34.12939453 41.42734375 34.12939453 55.02734375 34.12939453 C55.02734375 39.73939453 55.02734375 45.34939453 55.02734375 51.12939453 C42.15734375 51.45939453 29.28734375 51.78939453 16.02734375 52.12939453 C15.69734375 57.40939453 15.36734375 62.68939453 15.02734375 68.12939453 C17.06426392 68.12153931 17.06426392 68.12153931 19.14233398 68.11352539 C24.16104478 68.09548068 29.17975268 68.08396447 34.19848633 68.07446289 C36.37427248 68.06942145 38.55005522 68.06258846 40.72583008 68.05395508 C43.84587442 68.04188115 46.96587413 68.03616448 50.0859375 68.03173828 C51.55467567 68.02399635 51.55467567 68.02399635 53.05308533 68.01609802 C54.40437279 68.01598473 54.40437279 68.01598473 55.78295898 68.01586914 C56.58015854 68.01364853 57.37735809 68.01142792 58.19871521 68.00914001 C60.02734375 68.12939453 60.02734375 68.12939453 61.02734375 69.12939453 C61.10053996 71.82594307 61.11976912 74.49630911 61.08984375 77.19189453 C61.08533203 77.95050781 61.08082031 78.70912109 61.07617188 79.49072266 C61.06435055 81.37031324 61.04641453 83.24986352 61.02734375 85.12939453 C52.30899253 85.28299022 43.59057131 85.43117189 34.87201023 85.57235813 C30.82404591 85.63808184 26.77613142 85.70570106 22.72827148 85.77758789 C18.82504988 85.84683738 14.92177598 85.91119185 11.01841545 85.97208977 C9.52598047 85.99624649 8.03357343 86.0221952 6.54120064 86.04992867 C4.45793151 86.0883429 2.37465588 86.12049997 0.29125977 86.15112305 C-1.49078102 86.1811013 -1.49078102 86.1811013 -3.30882263 86.21168518 C-5.97265625 86.12939453 -5.97265625 86.12939453 -6.97265625 85.12939453 C-7.07307082 82.51789165 -7.10882682 79.93281088 -7.10205078 77.32080078 C-7.1038031 76.50296112 -7.10555542 75.68512146 -7.10736084 74.84249878 C-7.1117801 72.12560943 -7.10884111 69.4087846 -7.10546875 66.69189453 C-7.10614177 64.81241849 -7.10711178 62.93294254 -7.10836792 61.0534668 C-7.10984499 57.10904107 -7.10769004 53.16463795 -7.10302734 49.22021484 C-7.09733005 44.1522695 -7.10060901 39.08437711 -7.10659981 34.01643372 C-7.11020517 30.13382566 -7.10906695 26.25123025 -7.10647202 22.36862183 C-7.10580268 20.4994201 -7.10663141 18.63021725 -7.10895157 16.76101685 C-7.11147768 14.15330949 -7.10763809 11.54568912 -7.10205078 8.93798828 C-7.10407501 8.15769257 -7.10609924 7.37739685 -7.10818481 6.57345581 C-7.08160428 -0.08829116 -6.52175541 0.00458478 0 0 Z " fill="#00BE61" transform="translate(453.97265625,27.87060546875)"/>
<path d="M0 0 C1.32 1.32 2.64 2.64 4 4 C1.36 8.95 -1.28 13.9 -4 19 C-8.16382793 18.16723441 -11.2141847 17.14042189 -15.0625 15.5 C-21.98611158 12.78871056 -29.44333821 10.60928888 -36.77734375 12.84765625 C-39.21457629 13.81870041 -39.21457629 13.81870041 -40.0625 16.375 C-40.22525115 19.0381282 -40.22525115 19.0381282 -38.6875 21.0625 C-32.93793966 25.20753187 -26.10363173 26.99938476 -19.375 29 C-10.05324695 31.84466642 -3.68120074 34.75458163 2 43 C5.04721464 49.25749094 5.08819833 56.10016232 3.23046875 62.7578125 C-0.13585219 70.53722556 -5.79284924 74.45549352 -13.23828125 78.09375 C-27.03228487 83.23969954 -44.22395753 80.41574865 -57.234375 74.5390625 C-61.9987319 72.0560511 -65.13981707 69.86018293 -69 66 C-66.36 60.72 -63.72 55.44 -61 50 C-59.453125 50.886875 -57.90625 51.77375 -56.3125 52.6875 C-41.88936092 60.7766666 -41.88936092 60.7766666 -25.9296875 61.4140625 C-22.72015062 60.10367309 -22.72015062 60.10367309 -20 58 C-19.77255113 54.57862222 -19.77255113 54.57862222 -21 51 C-26.37527966 47.27021411 -32.63552203 45.86111749 -38.8449707 43.99560547 C-48.42704713 41.04641429 -56.88035346 37.9017455 -62.203125 28.984375 C-64.85061433 22.39160745 -64.29445587 15.55558821 -62 9 C-57.69474947 1.28024044 -51.02292822 -3.21913418 -42.6484375 -5.6953125 C-28.29882391 -8.92966985 -12.952215 -7.06129793 0 0 Z " fill="#0AC168" transform="translate(609,34)"/>
<path d="M0 0 C1.91703735 -0.00472824 1.91703735 -0.00472824 3.87280273 -0.009552 C5.27848342 -0.00776222 6.6841638 -0.00571127 8.08984375 -0.00341797 C9.52091488 -0.00409105 10.9519859 -0.00506111 12.38305664 -0.00631714 C15.38591599 -0.00779391 18.38874565 -0.00564023 21.39160156 -0.00097656 C25.24886946 0.00472073 29.10606779 0.00144161 32.96333313 -0.00454903 C35.91947966 -0.00815521 38.87560958 -0.00701579 41.83175659 -0.00442123 C43.25438444 -0.00375212 44.67701378 -0.00457984 46.09963989 -0.00690079 C48.08465549 -0.0094282 50.06967634 -0.00489589 52.0546875 0 C53.75226196 0.00119339 53.75226196 0.00119339 55.48413086 0.00241089 C58.02734375 0.12939453 58.02734375 0.12939453 59.02734375 1.12939453 C59.02734375 6.07939453 59.02734375 11.02939453 59.02734375 16.12939453 C44.50734375 16.45939453 29.98734375 16.78939453 15.02734375 17.12939453 C15.02734375 22.73939453 15.02734375 28.34939453 15.02734375 34.12939453 C34.33234375 34.62439453 34.33234375 34.62439453 54.02734375 35.12939453 C54.02734375 40.07939453 54.02734375 45.02939453 54.02734375 50.12939453 C52.88668457 50.14921387 51.74602539 50.1690332 50.57080078 50.18945312 C46.34759052 50.26540021 42.12472976 50.35413382 37.90185547 50.44677734 C36.07249846 50.4851123 34.2430649 50.51995716 32.41357422 50.55126953 C29.78715616 50.59682258 27.16126716 50.65483184 24.53515625 50.71533203 C23.30383469 50.73265884 23.30383469 50.73265884 22.04763794 50.75033569 C17.56487935 50.68664893 17.56487935 50.68664893 14.02734375 53.12939453 C14.02734375 58.07939453 14.02734375 63.02939453 14.02734375 68.12939453 C29.20734375 68.12939453 44.38734375 68.12939453 60.02734375 68.12939453 C60.02734375 73.40939453 60.02734375 78.68939453 60.02734375 84.12939453 C51.43928264 84.15194812 42.85124439 84.1703111 34.26316166 84.1812067 C30.27577175 84.18643489 26.28840308 84.19353137 22.30102539 84.20483398 C18.45609261 84.21566515 14.6111803 84.22167185 10.76623344 84.22427177 C9.29615392 84.22612561 7.82607557 84.22974544 6.35600471 84.23512459 C4.30379908 84.24233808 2.25167908 84.24338535 0.19946289 84.24291992 C-0.97079941 84.24514053 -2.14106171 84.24736115 -3.3467865 84.24964905 C-5.97265625 84.12939453 -5.97265625 84.12939453 -6.97265625 83.12939453 C-7.07303356 80.57887979 -7.10883112 78.05542275 -7.10205078 75.50439453 C-7.1038031 74.70606201 -7.10555542 73.90772949 -7.10736084 73.08520508 C-7.11177992 70.43324644 -7.10884117 67.78135391 -7.10546875 65.12939453 C-7.10614177 63.29475898 -7.10711178 61.46012352 -7.10836792 59.62548828 C-7.10984497 55.77521925 -7.10769011 51.92497338 -7.10302734 48.07470703 C-7.09733005 43.12782956 -7.10060902 38.18100634 -7.10659981 33.23413086 C-7.11020523 29.44416898 -7.10906692 25.65422007 -7.10647202 21.86425781 C-7.10580269 20.03971348 -7.10663135 18.21516798 -7.10895157 16.390625 C-7.11147779 13.84518292 -7.10763795 11.29982994 -7.10205078 8.75439453 C-7.10508713 7.61200317 -7.10508713 7.61200317 -7.10818481 6.4465332 C-7.08125493 -0.14205535 -6.43823767 0.00452606 0 0 Z " fill="#FFDE5A" transform="translate(473.97265625,149.87060546875)"/>
<path d="M0 0 C0.68128967 -0.00175232 1.36257935 -0.00350464 2.06451416 -0.00531006 C4.32688917 -0.00972789 6.58918663 -0.00679084 8.8515625 -0.00341797 C10.4171551 -0.00409103 11.9827476 -0.00506107 13.54833984 -0.00631714 C16.83366895 -0.00779402 20.11897092 -0.00563988 23.40429688 -0.00097656 C27.62476766 0.00472073 31.84517486 0.00144167 36.06564331 -0.00454903 C39.29972822 -0.00815491 42.53379795 -0.00701593 45.7678833 -0.00442123 C47.32448331 -0.00375204 48.88108468 -0.00458012 50.43768311 -0.00690079 C52.60953446 -0.00942777 54.78128146 -0.00558612 56.953125 0 C58.19143066 0.00079559 59.42973633 0.00159119 60.70556641 0.00241089 C63.4765625 0.12939453 63.4765625 0.12939453 64.4765625 1.12939453 C65.28397263 6.72299872 65.80809629 12.00429038 62.7265625 16.92236328 C60.72882773 19.10916938 58.65059241 21.1208299 56.4765625 23.12939453 C56.1465625 23.78939453 55.8165625 24.44939453 55.4765625 25.12939453 C54.8165625 25.12939453 54.1565625 25.12939453 53.4765625 25.12939453 C53.26128906 25.65404297 53.04601562 26.17869141 52.82421875 26.71923828 C50.94794532 30.07477656 48.44158216 32.82017535 45.9140625 35.69189453 C44.82064078 36.95016355 43.72820145 38.20928689 42.63671875 39.46923828 C42.09805176 40.09040527 41.55938477 40.71157227 41.00439453 41.3515625 C38.17679606 44.64184247 35.45179195 48.01455127 32.71875 51.38330078 C31.06974543 53.40290045 29.41019629 55.40963045 27.734375 57.40673828 C27.04529053 58.22827393 27.04529053 58.22827393 26.34228516 59.06640625 C25.04473794 60.61075187 23.74508317 62.15332602 22.4453125 63.69580078 C20.47548158 65.95250489 20.47548158 65.95250489 19.4765625 68.12939453 C34.3265625 68.12939453 49.1765625 68.12939453 64.4765625 68.12939453 C64.4765625 73.40939453 64.4765625 78.68939453 64.4765625 84.12939453 C54.97581614 84.15194679 45.47508743 84.17031033 35.97432041 84.1812067 C31.56319246 84.18643522 27.1520837 84.1935323 22.7409668 84.20483398 C18.48755135 84.21566397 14.23415441 84.2216716 9.98072624 84.22427177 C8.35434617 84.22612582 6.72796716 84.22974605 5.10159492 84.23512459 C2.83146057 84.24233651 0.56140365 84.24338541 -1.70874023 84.24291992 C-3.65066505 84.24625084 -3.65066505 84.24625084 -5.63182068 84.24964905 C-8.5234375 84.12939453 -8.5234375 84.12939453 -9.5234375 83.12939453 C-10.24444769 78.54114789 -10.52174688 74.05968045 -8.34765625 69.85595703 C-6.51220914 67.49922542 -4.55133799 65.32305384 -2.5234375 63.12939453 C-1.23103667 61.59928783 0.06098312 60.0688312 1.34448242 58.53125 C2.74892933 56.8526618 4.16538687 55.18499446 5.5859375 53.52001953 C8.39183508 50.23073718 11.18553006 46.93129227 13.9765625 43.62939453 C16.80622522 40.28362981 19.63738421 36.93915788 22.47265625 33.59814453 C22.96507812 33.01742187 23.4575 32.43669922 23.96484375 31.83837891 C24.90047827 30.73503631 25.83663847 29.63213919 26.7734375 28.52978516 C28.01301553 27.06738268 29.24496714 25.59852611 30.4765625 24.12939453 C31.22035156 23.24251953 31.96414063 22.35564453 32.73046875 21.44189453 C34.64143206 19.16694491 34.64143206 19.16694491 35.4765625 16.12939453 C21.2865625 16.12939453 7.0965625 16.12939453 -7.5234375 16.12939453 C-7.5234375 0.0048337 -7.5234375 0.0048337 0 0 Z " fill="#FFDE5A" transform="translate(349.5234375,149.87060546875)"/>
<path d="M0 0 C0.99 0.66 1.98 1.32 3 2 C2.52112335 6.76264597 0.50511358 9.22641652 -2.5625 12.8125 C-3.38878906 13.78832031 -4.21507812 14.76414062 -5.06640625 15.76953125 C-5.70449219 16.50558594 -6.34257812 17.24164063 -7 18 C-9.74789016 17.42968317 -10.96589612 17.0282575 -13.1875 15.1875 C-19.07806456 10.60594979 -24.99660368 8.26656005 -32.51171875 8.6171875 C-38.11590501 9.47937 -43.04444421 11.54743341 -46.875 15.8125 C-52.4127145 24.11907175 -53.26719543 31.45894485 -51.6015625 41.37109375 C-49.88670471 47.08357458 -45.84621592 50.71593427 -41 54 C-35.42911645 56.69063743 -30.0718507 56.85193625 -24 56 C-18.91221827 54.08252388 -13.87921246 51.87921246 -10 48 C-7.23986363 48.18741667 -6.15120753 48.85485354 -4.1484375 50.77734375 C-3.27058594 51.84662109 -3.27058594 51.84662109 -2.375 52.9375 C-1.48941406 54.00291016 -1.48941406 54.00291016 -0.5859375 55.08984375 C-0.06257813 55.72019531 0.46078125 56.35054688 1 57 C1.66 57.66 2.32 58.32 3 59 C2.8131257 61.68769218 2.19239555 62.79999811 0.3203125 64.74609375 C-11.33228914 73.72398789 -23.42587591 78.14623549 -38.25 76.375 C-47.70145434 74.71942374 -54.71709511 71.1807884 -62 65 C-62.62003906 64.47535156 -63.24007813 63.95070313 -63.87890625 63.41015625 C-71.86331641 56.08105405 -75.46806389 46.54209408 -76.21875 35.8984375 C-76.59520193 22.50302302 -72.49325792 11.80714852 -63.5 1.8125 C-45.59862481 -15.22323809 -19.02316972 -13.33549904 0 0 Z " fill="#0AC168" transform="translate(415,38)"/>
<path d="M0 0 C2.53070068 1.89578247 2.53070068 1.89578247 5.23339844 4.58642578 C5.97823235 5.31811729 5.97823235 5.31811729 6.7381134 6.06459045 C8.37466386 7.67915086 9.99226278 9.31130021 11.609375 10.9453125 C12.74253552 12.07510426 13.87643734 13.20415295 15.01104736 14.33248901 C17.38619412 16.70026448 19.75206362 19.07684627 22.11181641 21.45996094 C25.1336 24.51019919 28.17723225 27.53748219 31.22820663 30.55848885 C33.57417748 32.88636624 35.9080768 35.22605418 38.23853302 37.56945419 C39.35599278 38.69024396 40.47716386 39.80734628 41.60210419 40.92062759 C43.17523338 42.48101865 44.73138092 44.05661725 46.28417969 45.63720703 C47.17288757 46.52989288 48.06159546 47.42257874 48.97723389 48.34231567 C51.29308176 51.38507606 51.96070976 53.18728103 52 57 C50.92140198 58.97132874 50.92140198 58.97132874 49.19360352 60.72680664 C48.54150909 61.40703888 47.88941467 62.08727112 47.21755981 62.78811646 C46.48576508 63.51803802 45.75397034 64.24795959 45 65 C44.24218231 65.78962128 43.48436462 66.57924255 42.70358276 67.39279175 C37.20407195 73.10960825 31.5954687 78.72191789 26.00268555 84.34741211 C23.95036747 86.41315419 21.90560186 88.48596319 19.86694336 90.56518555 C17.3866158 93.09482167 14.89424348 95.61196811 12.3927021 98.12062263 C10.98982384 99.53343674 9.59914547 100.95833146 8.20872498 102.38340759 C7.35085892 103.23842361 6.49299286 104.09343964 5.60913086 104.97436523 C4.86191269 105.72967026 4.11469452 106.48497528 3.34483337 107.26316833 C0.47042835 109.39225679 -1.43421513 109.91144384 -5 110 C-6.97132874 108.92263794 -6.97132874 108.92263794 -8.72680664 107.19580078 C-9.40703888 106.54371643 -10.08727112 105.89163208 -10.78811646 105.2197876 C-11.51803802 104.48725769 -12.24795959 103.75472778 -13 103 C-13.78962128 102.23991638 -14.57924255 101.47983276 -15.39279175 100.69671631 C-18.07384828 98.10806332 -20.72521621 95.49177472 -23.37109375 92.8671875 C-23.84794176 92.39441502 -24.32478977 91.92164253 -24.81608772 91.43454361 C-27.32943694 88.94185716 -29.83964065 86.44605118 -32.34741211 83.94775391 C-34.9303202 81.37600153 -37.52471996 78.81616164 -40.12170315 76.25863457 C-42.12805472 74.27840155 -44.12549384 72.28935868 -46.12062263 70.29782486 C-47.53512451 68.89053704 -48.95919698 67.49288998 -50.38340759 66.09542847 C-51.23842361 65.23748688 -52.09343964 64.37954529 -52.97436523 63.49560547 C-53.72967026 62.74616669 -54.48497528 61.99672791 -55.26316833 61.22457886 C-57.26234792 58.66397801 -57.9218836 57.24730121 -58 54 C-56.16337539 49.97798951 -53.39139484 47.14320505 -50.28491211 44.04199219 C-49.81951523 43.57469696 -49.35411835 43.10740173 -48.87461853 42.62594604 C-47.34702448 41.09467052 -45.81239175 39.57067518 -44.27734375 38.046875 C-43.20988591 36.98061019 -42.14279848 35.91397443 -41.07606506 34.84698486 C-38.8457022 32.61818213 -36.61203166 30.3927679 -34.37573242 28.16992188 C-31.50666435 25.31789454 -28.64427484 22.45927688 -25.78409481 19.59833908 C-23.5839818 17.3984976 -21.38127544 15.20126882 -19.17767525 13.00492096 C-18.1208969 11.95132762 -17.06472562 10.89712501 -16.00916862 9.84230804 C-14.537176 8.37247783 -13.06194157 6.90598405 -11.58569336 5.44042969 C-10.74646835 4.60501648 -9.90724335 3.76960327 -9.04258728 2.90887451 C-6.01404656 0.07858949 -4.11581778 -0.53182751 0 0 Z M-5.84135437 16.48059082 C-6.87060783 17.51983704 -6.87060783 17.51983704 -7.9206543 18.58007812 C-8.70123703 19.36088745 -9.48181976 20.14169678 -10.28605652 20.94616699 C-11.12365005 21.79924438 -11.96124359 22.65232178 -12.82421875 23.53125 C-14.11632011 24.82971863 -14.11632011 24.82971863 -15.43452454 26.15441895 C-18.19261165 28.92934053 -20.94010457 31.71449623 -23.6875 34.5 C-25.5520474 36.37958798 -27.41727319 38.25850326 -29.28320312 40.13671875 C-33.86337826 44.7500265 -38.43489043 49.37178623 -43 54 C-41.58098338 57.22745524 -39.87144235 59.37258107 -37.37646484 61.85058594 C-36.63584808 62.59105164 -35.89523132 63.33151733 -35.13217163 64.09442139 C-34.33316437 64.88310608 -33.5341571 65.67179077 -32.7109375 66.484375 C-31.89251373 67.29996887 -31.07408997 68.11556274 -30.23086548 68.95587158 C-27.61690027 71.55864562 -24.99606495 74.15437762 -22.375 76.75 C-20.60110546 78.5138634 -18.82766234 80.2781809 -17.0546875 82.04296875 C-12.70834858 86.36726136 -8.35634919 90.6857933 -4 95 C0.38718942 93.40733964 2.90018015 91.54265126 6 88 C6 87.34 6 86.68 6 86 C6.66 86 7.32 86 8 86 C8 85.34 8 84.68 8 84 C8.66 84 9.32 84 10 84 C11.45164904 82.56694469 11.45164904 82.56694469 12.97265625 80.65625 C17.51249936 75.31719676 22.46140488 70.42952259 27.4375 65.5 C28.35982422 64.5821875 29.28214844 63.664375 30.23242188 62.71875 C32.48599899 60.47684945 34.74189075 58.237334 37 56 C35.50410556 52.84812633 33.97845843 50.78334055 31.4375 48.375 C28.09722222 45.19444444 28.09722222 45.19444444 27 43 C26.34 43 25.68 43 25 43 C25 42.34 25 41.68 25 41 C24.34 41 23.68 41 23 41 C23 40.34 23 39.68 23 39 C22.34 39 21.68 39 21 39 C21 38.34 21 37.68 21 37 C20.34 37 19.68 37 19 37 C19 36.34 19 35.68 19 35 C18.34 35 17.68 35 17 35 C16.74404053 34.42024414 16.48808105 33.84048828 16.22436523 33.24316406 C13.96747002 29.10829801 10.3776682 26.05058962 7.0625 22.75 C5.96905273 21.63238281 5.96905273 21.63238281 4.85351562 20.4921875 C4.15033203 19.78835937 3.44714844 19.08453125 2.72265625 18.359375 C2.08078369 17.71452148 1.43891113 17.06966797 0.77758789 16.40527344 C-1.81012362 14.35955617 -3.28578244 14.42571404 -5.84135437 16.48059082 Z " fill="#0FC26B" transform="translate(166,91)"/>
<path d="M0 0 C0.83265381 0.00523682 1.66530762 0.01047363 2.52319336 0.01586914 C3.42231445 0.0190918 4.32143555 0.02231445 5.24780273 0.02563477 C6.66609375 0.03820312 6.66609375 0.03820312 8.11303711 0.05102539 C9.06243164 0.05553711 10.01182617 0.06004883 10.98999023 0.06469727 C13.34356776 0.07652429 15.69702188 0.09300514 18.05053711 0.11352539 C19.60933266 3.2311165 19.18005843 6.53867025 19.1640625 9.9597168 C19.16420853 10.76955521 19.16435455 11.57939362 19.164505 12.41377258 C19.16380688 15.09757135 19.15601915 17.7813012 19.14819336 20.46508789 C19.14632882 22.32310956 19.14490509 24.18113172 19.14390564 26.03915405 C19.14008326 30.93495027 19.13025534 35.83071694 19.11920166 40.72650146 C19.10898155 45.72008871 19.10440673 50.71368071 19.09936523 55.70727539 C19.08863284 65.50937382 19.07103828 75.31144252 19.05053711 85.11352539 C11.79053711 85.11352539 4.53053711 85.11352539 -2.94946289 85.11352539 C-2.97201351 74.178557 -2.99037774 63.24360393 -3.00127506 52.30861759 C-3.00650399 47.23161521 -3.01360181 42.1546295 -3.02490234 37.07763672 C-3.03573088 32.18231987 -3.04173965 27.2870191 -3.04434013 22.39169121 C-3.04619444 20.51969588 -3.04981517 18.64770148 -3.05519295 16.77571297 C-3.06240294 14.1631184 -3.06345385 11.55059112 -3.06298828 8.93798828 C-3.06658356 8.15612152 -3.07017883 7.37425476 -3.07388306 6.56869507 C-3.06147819 0.1782827 -3.06147819 0.1782827 0 0 Z " fill="#09C168" transform="translate(645.949462890625,27.886474609375)"/>
<path d="M0 0 C6.97368117 3.66232709 10.63877232 9.16712571 13.3046875 16.4140625 C16.16779242 26.65354117 15.61033801 36.24645438 10.83984375 45.7578125 C7.64491963 51.04776883 4.01051358 55.12299969 -1.90234375 57.25 C-7.50758165 58.24012232 -12.29854317 58.01834072 -17.27734375 55.125 C-24.40347502 49.88947499 -27.93876078 43.83936296 -29.90234375 35.25 C-30.85820859 26.1161804 -30.28728315 18.37818035 -25.90234375 10.25 C-25.34546875 9.156875 -24.78859375 8.06375 -24.21484375 6.9375 C-18.07032438 -0.20342792 -8.96121638 -3.53296416 0 0 Z M-13.90234375 13.25 C-18.63766147 18.88118864 -18.49543142 24.4422712 -18.2890625 31.63671875 C-17.65362764 37.57386269 -16.06925875 41.31118132 -11.52734375 45.375 C-7.95083056 46.56717106 -6.2573856 45.85458523 -2.90234375 44.25 C1.33333411 40.68698562 2.62769625 35.53972001 3.390625 30.19921875 C3.6348514 24.39593427 2.50959435 18.08369777 -1.33203125 13.5703125 C-6.09331671 9.37753874 -8.96613369 9.51774361 -13.90234375 13.25 Z " fill="#10C36C" transform="translate(170.90234375,19.75)"/>
<path d="M0 0 C1.91703735 -0.00472824 1.91703735 -0.00472824 3.87280273 -0.009552 C5.27848342 -0.00776222 6.6841638 -0.00571127 8.08984375 -0.00341797 C9.52091488 -0.00409105 10.9519859 -0.00506111 12.38305664 -0.00631714 C15.38591599 -0.00779391 18.38874565 -0.00564023 21.39160156 -0.00097656 C25.24886946 0.00472073 29.10606779 0.00144161 32.96333313 -0.00454903 C35.91947966 -0.00815521 38.87560958 -0.00701579 41.83175659 -0.00442123 C43.25438444 -0.00375212 44.67701378 -0.00457984 46.09963989 -0.00690079 C48.08465549 -0.0094282 50.06967634 -0.00489589 52.0546875 0 C53.75226196 0.00119339 53.75226196 0.00119339 55.48413086 0.00241089 C58.02734375 0.12939453 58.02734375 0.12939453 59.02734375 1.12939453 C59.02734375 6.73939453 59.02734375 12.34939453 59.02734375 18.12939453 C44.50734375 18.12939453 29.98734375 18.12939453 15.02734375 18.12939453 C15.02734375 23.40939453 15.02734375 28.68939453 15.02734375 34.12939453 C28.22734375 34.12939453 41.42734375 34.12939453 55.02734375 34.12939453 C55.02734375 39.73939453 55.02734375 45.34939453 55.02734375 51.12939453 C42.15734375 51.45939453 29.28734375 51.78939453 16.02734375 52.12939453 C15.69734375 57.40939453 15.36734375 62.68939453 15.02734375 68.12939453 C17.06426392 68.12153931 17.06426392 68.12153931 19.14233398 68.11352539 C24.16104478 68.09548068 29.17975268 68.08396447 34.19848633 68.07446289 C36.37427248 68.06942145 38.55005522 68.06258846 40.72583008 68.05395508 C43.84587442 68.04188115 46.96587413 68.03616448 50.0859375 68.03173828 C51.55467567 68.02399635 51.55467567 68.02399635 53.05308533 68.01609802 C54.40437279 68.01598473 54.40437279 68.01598473 55.78295898 68.01586914 C56.58015854 68.01364853 57.37735809 68.01142792 58.19871521 68.00914001 C60.02734375 68.12939453 60.02734375 68.12939453 61.02734375 69.12939453 C61.10053996 71.82594307 61.11976912 74.49630911 61.08984375 77.19189453 C61.08533203 77.95050781 61.08082031 78.70912109 61.07617188 79.49072266 C61.06435055 81.37031324 61.04641453 83.24986352 61.02734375 85.12939453 C60.69734375 85.12939453 60.36734375 85.12939453 60.02734375 85.12939453 C60.02734375 80.17939453 60.02734375 75.22939453 60.02734375 70.12939453 C58.639104 70.13463135 57.25086426 70.13986816 55.82055664 70.14526367 C50.6900293 70.16330799 45.55950478 70.17482445 40.42895508 70.18432617 C38.20466643 70.1893677 35.98038112 70.19620076 33.75610352 70.20483398 C30.56656066 70.21690752 27.37706146 70.22262449 24.1875 70.22705078 C22.68595116 70.23479271 22.68595116 70.23479271 21.15406799 70.24269104 C20.23318893 70.24276657 19.31230988 70.2428421 18.36352539 70.24291992 C17.54856094 70.24514053 16.7335965 70.24736115 15.89393616 70.24964905 C14.02734375 70.12939453 14.02734375 70.12939453 13.02734375 69.12939453 C12.92897165 67.79895828 12.89655783 66.46346109 12.89453125 65.12939453 C12.89259766 63.92283203 12.89259766 63.92283203 12.890625 62.69189453 C12.89449219 61.84626953 12.89835937 61.00064453 12.90234375 60.12939453 C12.89654297 58.86095703 12.89654297 58.86095703 12.890625 57.56689453 C12.89191406 56.76251953 12.89320313 55.95814453 12.89453125 55.12939453 C12.89565918 54.38689453 12.89678711 53.64439453 12.89794922 52.87939453 C13.02734375 51.12939453 13.02734375 51.12939453 14.02734375 50.12939453 C16.98439696 50.04071154 19.91799431 50.01419157 22.875 50.03173828 C24.20464027 50.0338607 24.20464027 50.0338607 25.56114197 50.036026 C28.40407629 50.04164238 31.24693306 50.05419762 34.08984375 50.06689453 C36.01236866 50.07190742 37.93489479 50.07647069 39.85742188 50.08056641 C44.58075924 50.09161713 49.30403833 50.1088927 54.02734375 50.12939453 C54.02734375 45.17939453 54.02734375 40.22939453 54.02734375 35.12939453 C40.82734375 35.12939453 27.62734375 35.12939453 14.02734375 35.12939453 C14.02734375 29.18939453 14.02734375 23.24939453 14.02734375 17.12939453 C28.54734375 17.12939453 43.06734375 17.12939453 58.02734375 17.12939453 C58.02734375 12.17939453 58.02734375 7.22939453 58.02734375 2.12939453 C36.90734375 2.12939453 15.78734375 2.12939453 -5.97265625 2.12939453 C-5.97265625 29.51939453 -5.97265625 56.90939453 -5.97265625 85.12939453 C-6.30265625 85.12939453 -6.63265625 85.12939453 -6.97265625 85.12939453 C-6.99577922 74.19442982 -7.0135711 63.25947087 -7.02446842 52.32448673 C-7.02969735 47.24748435 -7.03679517 42.17049864 -7.0480957 37.09350586 C-7.05892424 32.19818901 -7.06493301 27.30288824 -7.06753349 22.40756035 C-7.0693878 20.53556502 -7.07300853 18.66357063 -7.07838631 16.79158211 C-7.08559629 14.17898754 -7.08664721 11.56646026 -7.08618164 8.95385742 C-7.08977692 8.17199066 -7.09337219 7.3901239 -7.09707642 6.58456421 C-7.08413011 -0.08477583 -6.52942177 0.00459016 0 0 Z " fill="#4ED293" transform="translate(453.97265625,27.87060546875)"/>
<path d="M0 0 C1.4540625 0.0309375 1.4540625 0.0309375 2.9375 0.0625 C-8.46133616 7.66172411 -27.91007446 9.68090018 -41.0625 7.0625 C-41.0625 6.7325 -41.0625 6.4025 -41.0625 6.0625 C-40.46187744 6.03744385 -39.86125488 6.0123877 -39.24243164 5.98657227 C-36.53638563 5.8709472 -33.83071717 5.74807064 -31.125 5.625 C-30.17947266 5.58568359 -29.23394531 5.54636719 -28.25976562 5.50585938 C-27.36064453 5.46396484 -26.46152344 5.42207031 -25.53515625 5.37890625 C-24.70250244 5.34224854 -23.86984863 5.30559082 -23.01196289 5.26782227 C-21.05911142 5.26882897 -21.05911142 5.26882897 -20.0625 4.0625 C-18.0052083 3.74326508 -15.94636479 3.55088648 -13.875 3.34375 C-12.0457467 3.24251957 -12.0457467 3.24251957 -11.0625 2.0625 C-8.72916667 1.72916667 -6.39583333 1.39583333 -4.0625 1.0625 C-3.0625 0.0625 -3.0625 0.0625 0 0 Z " fill="#41D18B" transform="translate(114.0625,248.9375)"/>
<path d="M0 0 C1.19799449 4.14659373 0.8896192 7.99369047 0.5625 12.25 C0.48418945 13.36761719 0.48418945 13.36761719 0.40429688 14.5078125 C0.2751783 16.33894861 0.13834886 18.16953813 0 20 C-2.40965778 16.38551333 -3.08819472 13.27744404 -3 9 C-2.24891427 5.88973472 -1.21219339 2.9585737 0 0 Z " fill="#3DD089" transform="translate(59,224)"/>
<path d="M0 0 C0.66 0 1.32 0 2 0 C2 1.65 2 3.3 2 5 C2.66 5 3.32 5 4 5 C4.08082094 6.95766281 4.13910778 8.91626728 4.1875 10.875 C4.22230469 11.96554688 4.25710937 13.05609375 4.29296875 14.1796875 C4.19628906 15.11039063 4.09960938 16.04109375 4 17 C3.01 17.66 2.02 18.32 1 19 C1.01160156 18.21496094 1.02320313 17.42992188 1.03515625 16.62109375 C1.08375507 10.96280225 1.01294749 5.57121122 0 0 Z " fill="#30CC81" transform="translate(172,37)"/>
<path d="M0 0 C0 3 0 3 -1.75 4.82421875 C-2.4925 5.43910156 -3.235 6.05398437 -4 6.6875 C-4.7425 7.31011719 -5.485 7.93273437 -6.25 8.57421875 C-6.8275 9.04472656 -7.405 9.51523438 -8 10 C-8.66 9.67 -9.32 9.34 -10 9 C-9.34 8.01 -8.68 7.02 -8 6 C-7.34 6 -6.68 6 -6 6 C-6 5.34 -6 4.68 -6 4 C-4.36368108 2.95107762 -2.69514137 1.95093297 -1 1 C-0.67 0.67 -0.34 0.34 0 0 Z " fill="#1DC573" transform="translate(180,171)"/>
<path d="M0 0 C0.33 0.66 0.66 1.32 1 2 C-0.07192184 3.3218362 -1.15802695 4.63217927 -2.25 5.9375 C-2.85328125 6.66839844 -3.4565625 7.39929688 -4.078125 8.15234375 C-6.10741134 10.10326334 -7.254407 10.61731779 -10 11 C-6.79239749 7.19364503 -3.59253891 3.45436433 0 0 Z " fill="#41CF8A" transform="translate(148,103)"/>
<path d="M0 0 C0.33 0.66 0.66 1.32 1 2 C0.01 3.485 0.01 3.485 -1 5 C-1.07905064 7.33199388 -1.08798769 9.66832622 -1 12 C-3 11 -3 11 -3.8125 8.75 C-4.05128032 5.24788862 -3.0220234 3.79972471 -1 1 C-0.67 0.67 -0.34 0.34 0 0 Z " fill="#50D495" transform="translate(112,139)"/>
<path d="M0 0 C1 2 1 2 0.51171875 4.12890625 C0.23972656 4.93199219 -0.03226563 5.73507813 -0.3125 6.5625 C-0.57675781 7.36816406 -0.84101562 8.17382812 -1.11328125 9.00390625 C-2 11 -2 11 -4 12 C-5 9 -5 9 -4.00390625 6.73828125 C-3.52824219 5.93777344 -3.05257812 5.13726562 -2.5625 4.3125 C-2.08941406 3.50425781 -1.61632812 2.69601563 -1.12890625 1.86328125 C-0.75636719 1.24839844 -0.38382813 0.63351563 0 0 Z " fill="#46D08E" transform="translate(545,90)"/>
<path d="M0 0 C-1.125 1.5625 -1.125 1.5625 -3 3 C-6.1875 2.6875 -6.1875 2.6875 -9 2 C-5.86501708 0.14223235 -3.62528568 -0.20140476 0 0 Z " fill="#37CF85" transform="translate(168,198)"/>
</svg>
