<?xml version="1.0" encoding="UTF-8"?>
<svg version="1.1" xmlns="http://www.w3.org/2000/svg" width="300" height="300">
<path d="M0 0 C11.10132957 5.66258932 11.10132957 5.66258932 23.0625 5.4375 C24.59797675 4.84939272 26.12166846 4.22849798 27.625 3.5625 C32.57236842 1.5625 32.57236842 1.5625 35.625 1.5625 C35.955 0.9025 36.285 0.2425 36.625 -0.4375 C61.75894414 -11.55443683 91.96838276 -9.1949327 117.625 -1.4375 C118.615 -0.9425 118.615 -0.9425 119.625 -0.4375 C119.625 0.2225 119.625 0.8825 119.625 1.5625 C120.45 1.748125 121.275 1.93375 122.125 2.125 C129.67648705 5.22650361 134.93017378 11.52026068 139.375 18.1875 C141.15244348 22.98659739 140.86819253 27.50049251 140.625 32.5625 C139.965 32.5625 139.305 32.5625 138.625 32.5625 C138.439375 33.59375 138.25375 34.625 138.0625 35.6875 C136.91891246 39.78121193 134.67748771 41.66685071 131.37890625 44.203125 C129.58835223 45.52923103 129.58835223 45.52923103 128.04296875 47.1640625 C122.69292706 52.44041216 113.24235096 51.83746729 106.23828125 51.79296875 C88.87035316 50.68517658 88.87035316 50.68517658 82.625 47.5625 C82.625 46.9025 82.625 46.2425 82.625 45.5625 C81.34496094 45.45421875 80.06492188 45.3459375 78.74609375 45.234375 C73.53153509 44.65101346 68.69396634 43.34580292 63.6875 41.8125 C62.85798828 41.57273437 62.02847656 41.33296875 61.17382812 41.0859375 C55.85778632 39.48327688 51.08595713 37.38378884 46.1628418 34.82910156 C41.89000202 32.69658662 37.46033558 31.0079492 33 29.3125 C32.11054688 28.961875 31.22109375 28.61125 30.3046875 28.25 C21.66001451 24.6999936 21.66001451 24.6999936 12.68017578 25.29492188 C11.42900576 25.9357565 10.19466967 26.60986476 8.97265625 27.3046875 C6.02108934 28.88605945 2.99294549 30.09319171 -0.125 31.3125 C-1.21296875 31.74046875 -2.3009375 32.1684375 -3.421875 32.609375 C-6.375 33.5625 -6.375 33.5625 -10.375 33.5625 C-10.87 34.5525 -10.87 34.5525 -11.375 35.5625 C-17.98240911 39.0241022 -25.18780238 41.24051572 -32.3125 43.375 C-33.03373047 43.59389893 -33.75496094 43.81279785 -34.49804688 44.03833008 C-38.20943091 45.1138864 -41.5053075 45.82754743 -45.375 45.5625 C-45.375 46.2225 -45.375 46.8825 -45.375 47.5625 C-60.3004477 51.37784756 -75.5083686 53.5180438 -90.375 48.5625 C-91.40330354 47.59162831 -92.40141818 46.58823799 -93.375 45.5625 C-94.53723168 44.61950748 -95.70404673 43.68214044 -96.875 42.75 C-102.05826059 38.28845924 -103.79946697 33.58272028 -104.390625 26.88671875 C-104.36586877 23.20423026 -103.45971943 20.07188638 -102.375 16.5625 C-101.715 16.5625 -101.055 16.5625 -100.375 16.5625 C-99.941875 15.69625 -99.941875 15.69625 -99.5 14.8125 C-99.12875 14.07 -98.7575 13.3275 -98.375 12.5625 C-97.99601562 11.61697266 -97.99601562 11.61697266 -97.609375 10.65234375 C-95.99989119 7.92742653 -94.10372386 6.65588531 -91.5 4.875 C-90.63632813 4.27300781 -89.77265625 3.67101562 -88.8828125 3.05078125 C-86.60792054 1.70072854 -84.90036104 1.16836016 -82.375 0.5625 C-82.045 -0.0975 -81.715 -0.7575 -81.375 -1.4375 C-79.4765625 -2.10766602 -79.4765625 -2.10766602 -77 -2.69140625 C-76.09636719 -2.90603516 -75.19273438 -3.12066406 -74.26171875 -3.34179688 C-73.30910156 -3.55900391 -72.35648438 -3.77621094 -71.375 -4 C-70.45332031 -4.22107422 -69.53164062 -4.44214844 -68.58203125 -4.66992188 C-46.46691609 -9.83219488 -20.81442343 -9.66595732 0 0 Z M-72.375 10.5625 C-72.375 11.2225 -72.375 11.8825 -72.375 12.5625 C-73.365 12.2325 -74.355 11.9025 -75.375 11.5625 C-78.09222751 13.04136729 -78.09222751 13.04136729 -80.875 15.1875 C-81.8340625 15.88101563 -82.793125 16.57453125 -83.78125 17.2890625 C-86.40119222 19.58545764 -87.90919086 21.41576297 -89.375 24.5625 C-89.19738846 29.61943194 -89.19738846 29.61943194 -86.375 33.5625 C-85.385 33.5625 -84.395 33.5625 -83.375 33.5625 C-83.375 34.2225 -83.375 34.8825 -83.375 35.5625 C-76.73617775 39.76597539 -65.80577906 38.03826405 -58.4375 36.5625 C-57.07963646 36.24456122 -55.72354812 35.91788209 -54.375 35.5625 C-54.375 34.9025 -54.375 34.2425 -54.375 33.5625 C-53.29992187 33.4696875 -52.22484375 33.376875 -51.1171875 33.28125 C-45.38445668 32.56371119 -39.9956346 30.79029421 -34.5 29.0625 C-33.45585938 28.74152344 -32.41171875 28.42054688 -31.3359375 28.08984375 C-26.25013486 26.59587101 -26.25013486 26.59587101 -21.375 24.5625 C-21.375 23.9025 -21.375 23.2425 -21.375 22.5625 C-19.395 23.0575 -19.395 23.0575 -17.375 23.5625 C-17.375 22.9025 -17.375 22.2425 -17.375 21.5625 C-16.73433594 21.38074219 -16.09367187 21.19898438 -15.43359375 21.01171875 C-10.23104103 19.49979955 -5.30355673 17.81249329 -0.375 15.5625 C-3.2174854 13.98976432 -3.2174854 13.98976432 -6.375 13.5625 C-6.87 12.5725 -6.87 12.5725 -7.375 11.5625 C-8.035 11.8925 -8.695 12.2225 -9.375 12.5625 C-9.375 11.9025 -9.375 11.2425 -9.375 10.5625 C-30.32312491 4.49999357 -51.3818549 4.89688012 -72.375 10.5625 Z M46.625 10.5625 C46.625 11.2225 46.625 11.8825 46.625 12.5625 C45.635 12.2325 44.645 11.9025 43.625 11.5625 C43.625 12.2225 43.625 12.8825 43.625 13.5625 C41.315 13.8925 39.005 14.2225 36.625 14.5625 C38.07513031 17.46276063 39.93020627 17.61204396 42.9375 18.6875 C43.90300781 19.04070312 44.86851562 19.39390625 45.86328125 19.7578125 C48.78562357 20.74899284 48.78562357 20.74899284 52.625 20.5625 C52.955 21.5525 53.285 22.5425 53.625 23.5625 C55.43722925 24.21554827 55.43722925 24.21554827 57.625 24.5625 C59.26961228 25.08127491 60.90994832 25.61371154 62.546875 26.15625 C63.49046875 26.46433594 64.4340625 26.77242187 65.40625 27.08984375 C67.37131175 27.73366003 69.33488649 28.38203441 71.296875 29.03515625 C75.62749226 30.44143006 79.72463301 31.6944542 84.265625 32.15625 C85.37421875 32.2903125 86.4828125 32.424375 87.625 32.5625 C88.12 33.5525 88.12 33.5525 88.625 34.5625 C89.615 34.2325 90.605 33.9025 91.625 33.5625 C91.625 34.2225 91.625 34.8825 91.625 35.5625 C100.17354648 37.96209199 110.54485324 39.67372982 118.93359375 36.1875 C122.06018897 34.2997444 123.73377206 32.69030006 125.625 29.5625 C126.11697471 26.18895913 125.8608462 24.1668559 124.625 21 C121.8629741 17.63378094 118.55494119 15.4244681 114.625 13.5625 C113.635 13.5625 112.645 13.5625 111.625 13.5625 C111.13 12.5725 111.13 12.5725 110.625 11.5625 C109.965 11.8925 109.305 12.2225 108.625 12.5625 C108.625 11.9025 108.625 11.2425 108.625 10.5625 C88.08205274 5.01837929 67.0704442 4.18397702 46.625 10.5625 Z " fill="#08C066" transform="translate(136.375,225.4375)"/>
<path d="M0 0 C2.13428462 1.69025869 3.76913787 3.19459115 5.5625 5.1875 C6.01818359 5.67025391 6.47386719 6.15300781 6.94335938 6.65039062 C8.30401677 8.09233907 9.65208387 9.54613413 11 11 C14.49098806 14.56807613 18.11175143 17.96491507 21.8125 21.3125 C26.68087896 25.74455845 31.38896123 30.29971532 36 35 C40.24906131 39.32071495 44.67912627 43.40133162 49.18359375 47.45117188 C58.79512066 56.21462288 58.79512066 56.21462288 59.4375 61.8125 C58.44465658 66.94382938 54.51282973 69.65341637 50.640625 72.82421875 C47.90671644 75.07686234 45.47483125 77.46589135 43 80 C40.6704462 82.35792029 38.33503129 84.71000587 36 87.0625 C35.39671875 87.67416016 34.7934375 88.28582031 34.171875 88.91601562 C30.92304789 92.18249941 27.6170505 95.13848472 24 98 C22.307675 99.64060709 20.64510213 101.31204427 19 103 C16.27646599 105.77641817 13.5452353 108.54514181 10.8125 111.3125 C10.08869141 112.05306641 9.36488281 112.79363281 8.61914062 113.55664062 C7.92626953 114.25595703 7.23339844 114.95527344 6.51953125 115.67578125 C5.89151611 116.31427002 5.26350098 116.95275879 4.61645508 117.6105957 C3 119 3 119 1 119 C0.67 119.66 0.34 120.32 0 121 C-1 122 -1 122 -4.0625 122.0625 C-9.50237246 121.2247373 -12.4878037 116.88407591 -16 113 C-19.50982101 109.40936074 -23.15944437 105.99942522 -26.875 102.625 C-32.72297875 97.28139238 -38.33998143 91.73202515 -43.88623047 86.07666016 C-47.11049739 82.8069441 -50.36083886 79.81617063 -54 77 C-55.66666667 75.33333333 -57.33333333 73.66666667 -59 72 C-59.90878906 71.30390625 -59.90878906 71.30390625 -60.8359375 70.59375 C-64.33926368 67.90548338 -65.80645809 66.7136858 -67 62.3125 C-67 59 -67 59 -66 56 C-64.43359375 54.45703125 -64.43359375 54.45703125 -62.4375 52.8125 C-58.05102609 49.09421656 -54.02707794 45.09942065 -50 41 C-46.47585229 37.42359969 -42.84068507 33.99964855 -39.125 30.625 C-33.33881434 25.33655074 -27.77636528 19.8501891 -22.28955078 14.25244141 C-18.80033038 10.71349794 -15.22639235 7.40507748 -11.37841797 4.25732422 C-9.86372261 3.02697349 -9.86372261 3.02697349 -9 1 C-5.61924282 -0.12691906 -3.5437994 -0.43366643 0 0 Z M-6.75 20.25 C-9.02260184 22.27144086 -11.27312349 24.2096064 -13.6875 26.0625 C-15.96152701 27.96776587 -17.69198151 30.03088537 -19.53125 32.34765625 C-21.90515387 35.0182981 -24.66841804 37.22140038 -27.42578125 39.484375 C-27.94527344 39.98453125 -28.46476562 40.4846875 -29 41 C-29 41.66 -29 42.32 -29 43 C-29.59546631 43.26949463 -30.19093262 43.53898926 -30.80444336 43.81665039 C-32.99431411 44.99693545 -34.39709136 46.16583189 -36.12890625 47.93359375 C-36.68900391 48.50013672 -37.24910156 49.06667969 -37.82617188 49.65039062 C-38.39916016 50.24013672 -38.97214844 50.82988281 -39.5625 51.4375 C-40.13935547 52.02337891 -40.71621094 52.60925781 -41.31054688 53.21289062 C-42.38587019 54.30557787 -43.45911775 55.40031484 -44.52954102 56.49780273 C-46.00913755 58.00933477 -47.50185535 59.50687053 -49 61 C-46.12921722 63.90003974 -43.25262962 66.79425533 -40.375 69.6875 C-39.56675781 70.50412109 -38.75851563 71.32074219 -37.92578125 72.16210938 C-33.76258559 76.34222859 -29.56335684 80.26693874 -25 84 C-23.30904575 85.64201988 -21.64402826 87.31099833 -20 89 C-17.63008803 91.42170567 -15.25335804 93.83659247 -12.875 96.25 C-11.94494141 97.20519531 -11.94494141 97.20519531 -10.99609375 98.1796875 C-10.39667969 98.78554687 -9.79726562 99.39140625 -9.1796875 100.015625 C-8.64069824 100.56508789 -8.10170898 101.11455078 -7.54638672 101.68066406 C-5.92045285 103.23494491 -5.92045285 103.23494491 -3 104 C0.3157291 102.06582469 3.61150239 100.05196917 6 97 C6 96.01 6 95.02 6 94 C6.66 94 7.32 94 8 94 C8 93.34 8 92.68 8 92 C8.99 92 9.98 92 11 92 C12.66904647 90.47320173 12.66904647 90.47320173 14.25 88.4375 C19.0669683 82.69575509 24.11544136 77.64570419 30 73 C31.68816933 71.35511706 33.35353315 69.68662458 35 68 C36.10285919 66.8945274 37.2070366 65.79036841 38.3125 64.6875 C39.199375 63.800625 40.08625 62.91375 41 62 C39.53417985 58.57719483 37.61937745 56.43519517 34.9375 53.875 C31.09722222 50.19444444 31.09722222 50.19444444 30 48 C29.34 48 28.68 48 28 48 C28 47.34 28 46.68 28 46 C27.01 46 26.02 46 25 46 C25 45.34 25 44.68 25 44 C24.34 44 23.68 44 23 44 C23 43.34 23 42.68 23 42 C22.34 42 21.68 42 21 42 C21 41.01 21 40.02 21 39 C20.34 39 19.68 39 19 39 C18.505 37.515 18.505 37.515 18 36 C16.44294806 34.42159428 16.44294806 34.42159428 14.5 32.875 C10.36623806 29.39040284 6.6216851 25.62437174 2.8828125 21.72265625 C1.17939784 19.7749896 1.17939784 19.7749896 -1 20 C-1.495 18.515 -1.495 18.515 -2 17 C-3.92680549 17 -5.39482291 19.03747313 -6.75 20.25 Z " fill="#03BF63" transform="translate(158,94)"/>
<path d="M0 0 C1.02408568 0.9753197 2.01834406 1.98198643 3 3 C3.94875 3.70125 4.8975 4.4025 5.875 5.125 C12.91917236 11.01266645 15.05316408 19.18916573 16 28 C16.83607487 38.53454334 13.98399804 47.5120564 7.81640625 56.0390625 C5.96052499 58.04261603 4.47313144 58.91511282 2 60 C0.9805881 60.98020375 -0.02246356 61.97803008 -1 63 C-6.01909116 65.50954558 -13.91040136 64.61791973 -19.3046875 63.5390625 C-23.87263955 61.81339173 -26.16654287 58.77794283 -29 55 C-29.49628906 54.54753906 -29.99257812 54.09507813 -30.50390625 53.62890625 C-36.91819853 46.64519899 -36.72588227 35.21637991 -36.38671875 26.29296875 C-35.80753999 17.96704576 -33.07471719 10.78544495 -27 5 C-25.03120677 3.93988057 -23.03564133 2.92529151 -21 2 C-20.67 1.34 -20.34 0.68 -20 0 C-13.33703648 -2.69353845 -6.78063438 -2.26021146 0 0 Z M-16 14 C-18.01699342 16.71543451 -20 19.52499781 -20 23 C-20.99 23.495 -20.99 23.495 -22 24 C-22 28.95 -22 33.9 -22 39 C-21.34 39 -20.68 39 -20 39 C-19.8453125 40.0828125 -19.8453125 40.0828125 -19.6875 41.1875 C-18.90511106 44.38818204 -18.03675709 46.40137889 -16 49 C-12.43079118 50.90357804 -10.78672422 51.22028278 -6.875 50.125 C-2.15948485 46.63961924 -0.1624557 41.66697154 1 36 C1.43586621 27.2826757 0.46889558 21.05456848 -5.3671875 14.34765625 C-8.98313073 11.36320549 -12.08925246 11.65355148 -16 14 Z " fill="#08C166" transform="translate(165,16)"/>
<path d="M0 0 C2.13428462 1.69025869 3.76913787 3.19459115 5.5625 5.1875 C6.01818359 5.67025391 6.47386719 6.15300781 6.94335938 6.65039062 C8.30401677 8.09233907 9.65208387 9.54613413 11 11 C14.49098806 14.56807613 18.11175143 17.96491507 21.8125 21.3125 C26.68087896 25.74455845 31.38896123 30.29971532 36 35 C40.24906131 39.32071495 44.67912627 43.40133162 49.18359375 47.45117188 C58.79512066 56.21462288 58.79512066 56.21462288 59.4375 61.8125 C58.44465658 66.94382938 54.51282973 69.65341637 50.640625 72.82421875 C47.90601227 75.07744255 45.47380063 77.4634313 43 80 C40.62986771 82.42148981 38.25335819 84.83659232 35.875 87.25 C35.25496094 87.88679688 34.63492188 88.52359375 33.99609375 89.1796875 C33.39667969 89.78554687 32.79726562 90.39140625 32.1796875 91.015625 C31.64069824 91.56508789 31.10170898 92.11455078 30.54638672 92.68066406 C29 94 29 94 26 95 C27.47238474 91.46470188 29.41000759 89.52595994 32.3125 87.0625 C35.69882311 84.17061456 38.85591034 81.15329637 42 78 C43.19231994 76.89519908 44.38785204 75.79385842 45.5859375 74.6953125 C46.84926102 73.50552964 48.11227684 72.31542 49.375 71.125 C50.02855469 70.53847656 50.68210937 69.95195312 51.35546875 69.34765625 C53.14275612 67.63562308 54.65974117 66.08176883 56 64 C56.05695912 59.01866607 54.96386414 56.20055017 51.57421875 52.51953125 C49.19420273 50.22219569 46.70034231 48.07144023 44.18359375 45.92578125 C40.26987093 42.47414377 36.65853186 38.71764638 33 35 C28.94452094 30.88517247 24.72374885 26.98289289 20.44702148 23.10253906 C17.19899392 20.12326083 14.07115466 17.07128418 11.02734375 13.8828125 C10.36653809 13.19622559 9.70573242 12.50963867 9.02490234 11.80224609 C7.73729546 10.4556893 6.46232528 9.09691037 5.20166016 7.72509766 C1.63072469 3.98023649 1.63072469 3.98023649 -3.1953125 2.38671875 C-6.33359426 3.07294471 -7.63955627 3.85200444 -9.9375 6.0625 C-10.61296875 6.70058594 -11.2884375 7.33867188 -11.984375 7.99609375 C-12.64953125 8.65738281 -13.3146875 9.31867188 -14 10 C-14.62390625 10.60972656 -15.2478125 11.21945313 -15.890625 11.84765625 C-17.61085379 13.5491869 -19.30633023 15.27207624 -21 17 C-24.36210162 20.41195156 -27.8133486 23.67250673 -31.375 26.875 C-36.99794796 31.97023946 -42.34632275 37.31194652 -47.68383789 42.70336914 C-51.52107604 46.56459315 -55.41300222 50.29437935 -59.58203125 53.80078125 C-62.15491721 55.97674816 -62.94290048 56.68278042 -63.5625 60.125 C-62.77193608 65.57110698 -59.83160515 68.23681637 -56 72 C-60.06712 72 -61.52117591 70.42022946 -64.4765625 67.7890625 C-66.83456086 65.01992596 -67 62.55496146 -67 59 C-65.89041597 55.6712479 -65.07455496 54.98510301 -62.4375 52.8125 C-58.05102609 49.09421656 -54.02707794 45.09942065 -50 41 C-46.47585229 37.42359969 -42.84068507 33.99964855 -39.125 30.625 C-33.33881434 25.33655074 -27.77636528 19.8501891 -22.28955078 14.25244141 C-18.80033038 10.71349794 -15.22639235 7.40507748 -11.37841797 4.25732422 C-9.86372261 3.02697349 -9.86372261 3.02697349 -9 1 C-5.61924282 -0.12691906 -3.5437994 -0.43366643 0 0 Z " fill="#5ED79C" transform="translate(158,94)"/>
<path d="M0 0 C2.475 0.495 2.475 0.495 5 1 C5 1.66 5 2.32 5 3 C5.825 3.185625 6.65 3.37125 7.5 3.5625 C15.05148705 6.66400361 20.30517378 12.95776068 24.75 19.625 C26.52744348 24.42409739 26.24319253 28.93799251 26 34 C25.34 34 24.68 34 24 34 C23.7215625 35.546875 23.7215625 35.546875 23.4375 37.125 C22.29391246 41.21871193 20.05248771 43.10435071 16.75390625 45.640625 C14.96335223 46.96673103 14.96335223 46.96673103 13.41796875 48.6015625 C8.06792706 53.87791216 -1.38264904 53.27496729 -8.38671875 53.23046875 C-25.75464684 52.12267658 -25.75464684 52.12267658 -32 49 C-32 48.34 -32 47.68 -32 47 C-27.71 47.33 -23.42 47.66 -19 48 C-19 48.66 -19 49.32 -19 50 C-0.59796102 51.18397834 -0.59796102 51.18397834 15.4375 43.8125 C20.55418383 38.78417334 22.55791231 35.37091861 23.5 28.1875 C23.19458828 21.88380209 20.33627073 16.33190387 15.91015625 11.9140625 C11.56842417 8.39614625 7.24507217 5.89715376 2 4 C2 3.34 2 2.68 2 2 C1.34 2 0.68 2 0 2 C0 1.34 0 0.68 0 0 Z " fill="#65D8A1" transform="translate(251,224)"/>
<path d="M0 0 C0.99 0.33 1.98 0.66 3 1 C1.42173185 2.46381359 -0.16282229 3.92085163 -1.75 5.375 C-2.63171875 6.18710938 -3.5134375 6.99921875 -4.421875 7.8359375 C-7 10 -7 10 -9.203125 11.0390625 C-11.55448902 12.29653109 -11.84234444 13.62874271 -13 16 C-14.55114724 17.53467488 -16.16225314 19.00992513 -17.8125 20.4375 C-21.34669515 23.51187551 -24.71234568 26.66283281 -28 30 C-29.0863993 31.08807922 -30.17369023 32.17526868 -31.26171875 33.26171875 C-32.10379883 34.10379883 -32.10379883 34.10379883 -32.96289062 34.96289062 C-36.30859375 38.30859375 -39.65429688 41.65429688 -43 45 C-40.31677754 47.71259916 -37.627651 50.41927327 -34.9375 53.125 C-34.18533203 53.88554687 -33.43316406 54.64609375 -32.65820312 55.4296875 C-29.19056033 58.91234174 -25.7267123 62.29195585 -21.94140625 65.4296875 C-20.97074219 66.27789062 -20.00007813 67.12609375 -19 68 C-19 68.66 -19 69.32 -19 70 C-21.84096797 68.71202814 -23.85880877 67.37642339 -26.0234375 65.13671875 C-26.57 64.57919922 -27.1165625 64.02167969 -27.6796875 63.44726562 C-28.23914063 62.86654297 -28.79859375 62.28582031 -29.375 61.6875 C-33.41230608 57.52284899 -37.490761 53.65248359 -42 50 C-44.375 47.875 -44.375 47.875 -46 46 C-46 45.01 -46 44.02 -46 43 C-43.76953125 40.94921875 -43.76953125 40.94921875 -40.8125 38.6875 C-36.22766277 35.12138832 -36.22766277 35.12138832 -32.3125 30.875 C-30.40092808 28.49845113 -28.70016377 26.80621758 -26.3984375 24.86328125 C-21.80790024 20.89657423 -17.56230561 16.63826281 -13.3125 12.3125 C-3.39490048 2.22044842 -3.39490048 2.22044842 0 0 Z " fill="#5AD69A" transform="translate(153,110)"/>
<path d="M0 0 C0.66 0 1.32 0 2 0 C0.37506343 4.15704633 -2.67222824 6.89595505 -5.8125 9.9375 C-6.33392578 10.44990234 -6.85535156 10.96230469 -7.39257812 11.49023438 C-8.4314634 12.51096185 -9.47246681 13.52953818 -10.515625 14.54589844 C-11.87331176 15.87589553 -13.21302794 17.22417368 -14.55078125 18.57421875 C-17.09190411 21.09102464 -19.71558523 23.48376151 -22.375 25.875 C-27.99794796 30.97023946 -33.34632275 36.31194652 -38.68383789 41.70336914 C-42.52107604 45.56459315 -46.41300222 49.29437935 -50.58203125 52.80078125 C-53.15491721 54.97674816 -53.94290048 55.68278042 -54.5625 59.125 C-53.77193608 64.57110698 -50.83160515 67.23681637 -47 71 C-51.06712 71 -52.52117591 69.42022946 -55.4765625 66.7890625 C-57.83456086 64.01992596 -58 61.55496146 -58 58 C-56.89041597 54.6712479 -56.07455496 53.98510301 -53.4375 51.8125 C-49.05102609 48.09421656 -45.02707794 44.09942065 -41 40 C-37.47585229 36.42359969 -33.84068507 32.99964855 -30.125 29.625 C-24.33881434 24.33655074 -18.77636528 18.8501891 -13.28955078 13.25244141 C-9.80033038 9.71349794 -6.22639235 6.40507748 -2.37841797 3.25732422 C-0.86372261 2.02697349 -0.86372261 2.02697349 0 0 Z " fill="#7CDEAF" transform="translate(149,95)"/>
<path d="M0 0 C1.13622803 0.00273926 2.27245605 0.00547852 3.44311523 0.00830078 C11.50830018 0.10858965 19.55511807 0.41883172 27.1875 3.3125 C27.6825 4.3025 27.6825 4.3025 28.1875 5.3125 C26.81226865 5.16886473 25.43732598 5.02246483 24.0625 4.875 C23.29679687 4.79378906 22.53109375 4.71257812 21.7421875 4.62890625 C19.9512626 4.40709445 18.16700377 4.12743315 16.39135742 3.80541992 C3.66843569 1.84797277 -11.12113415 1.93459607 -23.4921875 5.65625 C-25.8125 6.3125 -25.8125 6.3125 -29.8125 6.3125 C-29.8125 6.9725 -29.8125 7.6325 -29.8125 8.3125 C-30.4725 8.3125 -31.1325 8.3125 -31.8125 8.3125 C-31.8125 7.3225 -31.8125 6.3325 -31.8125 5.3125 C-21.39568439 0.9885388 -11.22228412 -0.05465801 0 0 Z " fill="#59D699" transform="translate(212.8125,229.6875)"/>
<path d="M0 0 C0.66 0.33 1.32 0.66 2 1 C1.22914062 1.53109375 0.45828125 2.0621875 -0.3359375 2.609375 C-1.33882812 3.31578125 -2.34171875 4.0221875 -3.375 4.75 C-4.37273438 5.44609375 -5.37046875 6.1421875 -6.3984375 6.859375 C-8.87477464 8.89696172 -10.01915946 9.99767104 -11 13 C-11.00668717 16.62057268 -11.00668717 16.62057268 -10 20 C-8.06402968 21.51294288 -8.06402968 21.51294288 -6 22 C-6 22.66 -6 23.32 -6 24 C2.7765631 26.77850993 14.01285471 25.18418856 23 24 C23 23.34 23 22.68 23 22 C23.99 22 24.98 22 26 22 C25.505 23.485 25.505 23.485 25 25 C19.01900676 27.42849657 12.95085886 27.43426769 6.5625 27.5 C5.56412109 27.54125 4.56574219 27.5825 3.53710938 27.625 C-2.82349609 27.69190972 -6.57182481 26.71119446 -11.53442383 22.67944336 C-13.63373251 20.27378878 -14.23099511 18.17111851 -14.28515625 15.01171875 C-13.75964365 11.30433532 -12.5215809 8.67723405 -10 6 C-6.83909699 3.64841032 -3.62242366 1.56508897 0 0 Z " fill="#50D293" transform="translate(59,237)"/>
<path d="M0 0 C1.12067871 -0.00128906 2.24135742 -0.00257813 3.39599609 -0.00390625 C13.11932966 0.11838235 22.0601098 1.67921782 31.375 4.375 C31.375 5.035 31.375 5.695 31.375 6.375 C27.13056728 5.90339636 23.04261536 5.31626959 18.8828125 4.3515625 C12.7886102 3.11924178 6.8244963 3.07414724 0.625 3.125 C-1.08502197 3.13080078 -1.08502197 3.13080078 -2.82958984 3.13671875 C-10.91264132 3.21961003 -18.68717478 3.75857014 -26.625 5.375 C-24.625 2.375 -24.625 2.375 -22.24853516 1.65771484 C-14.80473604 0.53396032 -7.52771608 -0.00908733 0 0 Z " fill="#55D596" transform="translate(95.625,229.625)"/>
<path d="M0 0 C2.97195085 1.33299251 5.01461054 2.78307146 7.27734375 5.1171875 C8.17163086 6.02791016 8.17163086 6.02791016 9.08398438 6.95703125 C9.69564453 7.58996094 10.30730469 8.22289062 10.9375 8.875 C14.80588044 12.85414001 18.63323514 16.5612626 23 20 C24.69044254 21.64254667 26.3540349 23.31288577 28 25 C30.49586727 27.52493845 32.99824052 30.04340159 35.5 32.5625 C36.47646484 33.5515332 36.47646484 33.5515332 37.47265625 34.56054688 C40.20017552 37.3018415 42.82481305 39.86649059 45.90625 42.21484375 C48.16300805 44.13898261 48.68883562 45.09579913 49 48 C47.93513145 47.10698344 46.87324959 46.2104053 45.8125 45.3125 C45.22082031 44.81363281 44.62914062 44.31476563 44.01953125 43.80078125 C41.58106575 41.62644354 39.31032824 39.31032824 37 37 C34.53596874 34.67124043 32.04712858 32.36924732 29.5625 30.0625 C23.44142131 24.36058598 17.45707108 18.54718334 11.60571289 12.56860352 C8.5518011 9.46675107 5.40696478 6.71948796 2 4 C0.6875 1.75 0.6875 1.75 0 0 Z " fill="#71DBA8" transform="translate(102,167)"/>
<path d="M0 0 C0.66 0 1.32 0 2 0 C2.556875 0.70125 3.11375 1.4025 3.6875 2.125 C6.45307109 5.56327758 9.59570576 8.21727633 13 11 C12.46803771 15.07448042 10.41603577 16.94430787 7.5546875 19.7734375 C6.64203125 20.6809375 5.729375 21.5884375 4.7890625 22.5234375 C4.30985352 22.99233398 3.83064453 23.46123047 3.33691406 23.94433594 C1.89401556 25.35639092 0.4617652 26.77853735 -0.96875 28.203125 C-4.91205505 32.10224736 -8.84274253 35.94037118 -13.1171875 39.4765625 C-16.19465246 41.74136739 -16.19465246 41.74136739 -17 45 C-19.475 45.495 -19.475 45.495 -22 46 C-22 45.34 -22 44.68 -22 44 C-21.01 44 -20.02 44 -19 44 C-18.78988281 43.46246094 -18.57976562 42.92492187 -18.36328125 42.37109375 C-16.48059205 39.09661712 -13.87786636 36.6682841 -11.1875 34.0625 C-10.66607422 33.55009766 -10.14464844 33.03769531 -9.60742188 32.50976562 C-8.56861869 31.4891188 -7.527697 30.4706235 -6.48461914 29.4543457 C-5.12553702 28.12297714 -3.78445234 26.77330053 -2.4453125 25.421875 C0.07368785 22.92701842 2.66868848 20.54930496 5.3125 18.1875 C6.63701172 17.00220703 6.63701172 17.00220703 7.98828125 15.79296875 C8.98408203 14.90544922 8.98408203 14.90544922 10 14 C8.53023536 10.54992089 6.59081481 8.43506916 3.875 5.875 C2.54605277 4.62172237 1.24452827 3.33714433 0 2 C0 1.34 0 0.68 0 0 Z " fill="#7FDEB1" transform="translate(188,142)"/>
<path d="M0 0 C0.66 0 1.32 0 2 0 C2.33 0.66 2.66 1.32 3 2 C5.47460438 2.91154258 7.91867603 3.73249131 10.4375 4.5 C17.73644578 6.73644578 17.73644578 6.73644578 20 9 C23.21668505 10.42850997 26.49218246 11.50735738 29.86328125 12.5078125 C31.19262695 12.90419922 31.19262695 12.90419922 32.54882812 13.30859375 C33.46083984 13.57800781 34.37285156 13.84742188 35.3125 14.125 C36.24384766 14.40214844 37.17519531 14.67929688 38.13476562 14.96484375 C40.42256586 15.64531767 42.71098251 16.3236343 45 17 C45 17.66 45 18.32 45 19 C39.72254151 18.38682271 34.92256975 17.19890494 29.875 15.5625 C29.18535156 15.34529297 28.49570313 15.12808594 27.78515625 14.90429688 C24.12752292 13.73986867 20.54135756 12.48130715 17 11 C17 10.34 17 9.68 17 9 C16.443125 8.90203125 15.88625 8.8040625 15.3125 8.703125 C9.6188919 7.58748557 5.09228905 5.77761221 0 3 C0 2.01 0 1.02 0 0 Z " fill="#60D69D" transform="translate(171,239)"/>
<path d="M0 0 C2.65234375 -0.32421875 2.65234375 -0.32421875 6 0 C8.13428462 1.69025869 9.76913787 3.19459115 11.5625 5.1875 C12.01818359 5.67025391 12.47386719 6.15300781 12.94335938 6.65039062 C14.30401677 8.09233907 15.65208387 9.54613413 17 11 C20.57470766 14.65414561 24.27781037 18.13009595 28.0625 21.5625 C31.45005381 24.63709628 34.79492036 27.73343203 38 31 C37.67 31.99 37.34 32.98 37 34 C36.175 32.989375 35.35 31.97875 34.5 30.9375 C32.25876162 28.31526742 29.95892816 26.02658775 27.31640625 23.8125 C24.29438629 21.20655525 21.48935127 18.49555664 18.74609375 15.59765625 C18.03646484 14.85322266 17.32683594 14.10878906 16.59570312 13.34179688 C15.14136149 11.80585417 13.69882017 10.2586621 12.26757812 8.70117188 C8.65105326 4.71104423 8.65105326 4.71104423 3.91455078 2.49951172 C1.78924392 2.44111785 1.78924392 2.44111785 -1 3 C-0.67 2.01 -0.34 1.02 0 0 Z " fill="#55D497" transform="translate(152,94)"/>
<path d="M0 0 C0.33 0.66 0.66 1.32 1 2 C0.525625 2.86625 0.05125 3.7325 -0.4375 4.625 C-2.28487957 8.61533987 -2.29972217 11.72895912 -2 16 C-1.9690625 16.87914062 -1.938125 17.75828125 -1.90625 18.6640625 C-1.8546875 19.55867188 -1.803125 20.45328125 -1.75 21.375 C-1.70359375 22.20773437 -1.6571875 23.04046875 -1.609375 23.8984375 C-1.20849109 26.18078908 -1.20849109 26.18078908 0.96875 27.15625 C1.6390625 27.4346875 2.309375 27.713125 3 28 C4.25 30.125 4.25 30.125 5 32 C0.88381816 30.47548821 -1.64462772 27.59111338 -4 24 C-6.78487776 17.41756165 -6.22935668 10.68807003 -4 4 C-3.34 4 -2.68 4 -2 4 C-1.34 2.68 -0.68 1.36 0 0 Z " fill="#4ED491" transform="translate(38,238)"/>
<path d="M0 0 C7.42857143 1 7.42857143 1 11 2 C11 2.66 11 3.32 11 4 C20.42506889 5.32281669 30.67417033 6.24247049 40 4 C38 7 38 7 35.4375 7.6875 C25.20870108 8.61739081 16.00637179 6.93004645 6 5 C6 4.34 6 3.68 6 3 C4.02 3 2.04 3 0 3 C0 2.01 0 1.02 0 0 Z " fill="#50D293" transform="translate(217,257)"/>
<path d="M0 0 C0.99 0.33 1.98 0.66 3 1 C1.42173185 2.46381359 -0.16282229 3.92085163 -1.75 5.375 C-2.63171875 6.18710938 -3.5134375 6.99921875 -4.421875 7.8359375 C-7 10 -7 10 -9.203125 11.0390625 C-11.55448902 12.29653109 -11.84234444 13.62874271 -13 16 C-14.55114724 17.53467488 -16.16225314 19.00992513 -17.8125 20.4375 C-21.3349544 23.52665683 -24.74285298 26.63428141 -28 30 C-28 27 -28 27 -25.96801758 24.61157227 C-24.57039185 23.22796509 -24.57039185 23.22796509 -23.14453125 21.81640625 C-22.64588058 21.31962875 -22.14722992 20.82285126 -21.63346863 20.3110199 C-20.57513087 19.25940954 -19.5131991 18.21140582 -18.44799805 17.16674805 C-16.82936546 15.57904321 -15.22143212 13.98113292 -13.61523438 12.38085938 C-3.6396659 2.49409101 -3.6396659 2.49409101 0 0 Z " fill="#6DDCA6" transform="translate(153,110)"/>
<path d="M0 0 C3.02425335 1.34864795 5.06036641 2.83825016 7.34765625 5.22265625 C7.95287109 5.84333984 8.55808594 6.46402344 9.18164062 7.10351562 C9.80232422 7.74998047 10.42300781 8.39644531 11.0625 9.0625 C12.29861949 10.34964609 13.53932158 11.63241119 14.78515625 12.91015625 C15.60318726 13.76299194 15.60318726 13.76299194 16.43774414 14.63305664 C18.06842496 16.2376508 18.06842496 16.2376508 21 17 C25.41678713 14.60757364 27.58915871 12.33951433 30 8 C30.66 8 31.32 8 32 8 C31.46968389 11.98186504 29.62243552 13.68498817 26.6875 16.3125 C25.90761719 17.03050781 25.12773437 17.74851563 24.32421875 18.48828125 C22 20 22 20 20.015625 20.03125 C17.13876809 18.55936972 15.28378917 16.52515872 13.0625 14.1875 C10.55484115 11.5635664 8.13793518 9.10982989 5.296875 6.84765625 C2.77419371 4.81835651 1.50113719 2.84425993 0 0 Z " fill="#63D79F" transform="translate(134,180)"/>
<path d="M0 0 C0.66 0 1.32 0 2 0 C5.25978651 8.91008312 5.85947411 17.70262945 4 27 C3.34 27 2.68 27 2 27 C2.33 22.71 2.66 18.42 3 14 C2.34 14 1.68 14 1 14 C0.67 9.38 0.34 4.76 0 0 Z " fill="#5BD89C" transform="translate(176,31)"/>
<path d="M0 0 C0.66 0 1.32 0 2 0 C0.125 5.875 0.125 5.875 -1 7 C-1.09956009 9.2898821 -1.1296872 11.58295937 -1.125 13.875 C-1.12757813 15.13054688 -1.13015625 16.38609375 -1.1328125 17.6796875 C-1.15407077 21.00121782 -1.15407077 21.00121782 0 24 C-0.99 24 -1.98 24 -3 24 C-3.81862159 20.4201548 -4.13520898 17.10762899 -4.125 13.4375 C-4.12757813 12.50808594 -4.13015625 11.57867187 -4.1328125 10.62109375 C-4.01309964 8.25852524 -3.66993233 6.25969237 -3 4 C-2.34 4 -1.68 4 -1 4 C-0.67 2.68 -0.34 1.36 0 0 Z " fill="#63DAA1" transform="translate(145,33)"/>
<path d="M0 0 C0.66 0.33 1.32 0.66 2 1 C-1.25846607 5.17490966 -4.70328993 8.56814575 -8.73828125 11.98828125 C-12.30757361 15.16304043 -15.58668384 18.61867625 -18.8984375 22.05859375 C-21 24 -21 24 -23 24 C-23.33 24.66 -23.66 25.32 -24 26 C-24 25.01 -24 24.02 -24 23 C-23.34 23 -22.68 23 -22 23 C-21.78601563 22.44828125 -21.57203125 21.8965625 -21.3515625 21.328125 C-19.54522208 18.21662532 -17.04873944 16.09507517 -14.375 13.75 C-13.29295481 12.7814161 -12.2122316 11.81135339 -11.1328125 10.83984375 C-10.60204102 10.36272949 -10.07126953 9.88561523 -9.52441406 9.39404297 C-6.2318414 6.38305804 -3.11262237 3.19501532 0 0 Z " fill="#56D598" transform="translate(182,189)"/>
<path d="M0 0 C0 0.66 0 1.32 0 2 C-3.24542723 3.34466186 -6.49702334 4.6737175 -9.75 6 C-10.67039063 6.3815625 -11.59078125 6.763125 -12.5390625 7.15625 C-13.42851562 7.5171875 -14.31796875 7.878125 -15.234375 8.25 C-16.05131836 8.58515625 -16.86826172 8.9203125 -17.70996094 9.265625 C-20 10 -20 10 -24 10 C-24.33 10.66 -24.66 11.32 -25 12 C-25.99 12.33 -26.98 12.66 -28 13 C-27.76855469 11.11572266 -27.76855469 11.11572266 -27 9 C-25.12988281 7.93505859 -25.12988281 7.93505859 -22.703125 7.1484375 C-21.8265625 6.85453125 -20.95 6.560625 -20.046875 6.2578125 C-19.12390625 5.96648437 -18.2009375 5.67515625 -17.25 5.375 C-15.44247948 4.77933983 -13.63518091 4.18300568 -11.828125 3.5859375 C-11.0227832 3.3286084 -10.21744141 3.0712793 -9.38769531 2.80615234 C-7.67880618 2.22918385 -5.99172209 1.58598439 -4.32324219 0.90087891 C-2 0 -2 0 0 0 Z " fill="#5AD69A" transform="translate(150,249)"/>
<path d="M0 0 C25.25673107 5.45644599 25.25673107 5.45644599 29 10 C22.99196626 9.34248605 17.45380276 7.77811809 11.6875 6 C10.78193359 5.72671875 9.87636719 5.4534375 8.94335938 5.171875 C2.30321429 3.15160714 2.30321429 3.15160714 0 2 C0 1.34 0 0.68 0 0 Z " fill="#61D89D" transform="translate(188,261)"/>
<path d="M0 0 C1.01320312 0.42152344 2.02640625 0.84304687 3.0703125 1.27734375 C4.4217418 1.83105437 5.77331183 2.3844216 7.125 2.9375 C7.79015625 3.21529297 8.4553125 3.49308594 9.140625 3.77929688 C14.35270375 5.89989754 19.42510621 7.92977093 25 6 C24.67 6.99 24.34 7.98 24 9 C18.7194747 10.41413448 15.21705803 9.32398577 10.375 7.1875 C9.39273438 6.77661133 9.39273438 6.77661133 8.390625 6.35742188 C5.20452197 5.01268001 2.0680503 3.59632059 -1 2 C-0.67 1.34 -0.34 0.68 0 0 Z " fill="#54D396" transform="translate(135,225)"/>
<path d="M0 0 C0.66 0 1.32 0 2 0 C1.84660156 0.97066406 1.69320312 1.94132812 1.53515625 2.94140625 C0.91790015 7.26219894 0.66519605 11.58141318 0.4375 15.9375 C0.39431641 16.71673828 0.35113281 17.49597656 0.30664062 18.29882812 C0.20171923 20.19907117 0.1004755 22.09951669 0 24 C-0.66 24 -1.32 24 -2 24 C-2.05425013 21.12474331 -2.09379277 18.25052354 -2.125 15.375 C-2.14175781 14.56675781 -2.15851563 13.75851563 -2.17578125 12.92578125 C-2.21420986 8.19906185 -1.82737094 4.44612298 0 0 Z " fill="#5CD79B" transform="translate(131,32)"/>
<path d="M0 0 C0.66 0 1.32 0 2 0 C0.53033642 3.39859703 -1.38037514 5.64963709 -4 8.25 C-4.70125 8.95640625 -5.4025 9.6628125 -6.125 10.390625 C-8 12 -8 12 -10 12 C-10.33 12.99 -10.66 13.98 -11 15 C-11.66 14.67 -12.32 14.34 -13 14 C-11.62523555 8.80644539 -8.25658407 5.99572509 -4 3 C-3.01 2.67 -2.02 2.34 -1 2 C-0.67 1.34 -0.34 0.68 0 0 Z " fill="#42CF8B" transform="translate(145,16)"/>
<path d="M0 0 C7.57974327 1.16994395 14.72416009 2.57472003 22 5 C22 5.66 22 6.32 22 7 C20.02 7 18.04 7 16 7 C16 6.34 16 5.68 16 5 C14.989375 4.855625 13.97875 4.71125 12.9375 4.5625 C11.638125 4.376875 10.33875 4.19125 9 4 C7.741875 3.87625 6.48375 3.7525 5.1875 3.625 C4.135625 3.41875 3.08375 3.2125 2 3 C1.34 2.01 0.68 1.02 0 0 Z " fill="#63D8A0" transform="translate(112,219)"/>
<path d="M0 0 C4.29 0.33 8.58 0.66 13 1 C13 1.66 13 2.32 13 3 C15.64 3 18.28 3 21 3 C20.67 3.66 20.34 4.32 20 5 C13.34139118 5.24661514 6.07439502 5.03719751 0 2 C0 1.34 0 0.68 0 0 Z " fill="#4ED594" transform="translate(219,271)"/>
<path d="M0 0 C0.85722656 0.09023437 1.71445313 0.18046875 2.59765625 0.2734375 C4.9375 0.625 4.9375 0.625 7.9375 1.625 C8.2675 2.615 8.5975 3.605 8.9375 4.625 C2.9975 3.965 -2.9425 3.305 -9.0625 2.625 C-9.0625 1.965 -9.0625 1.305 -9.0625 0.625 C-5.8624892 -0.36989895 -3.3193397 -0.37048437 0 0 Z " fill="#5DD79E" transform="translate(157.0625,14.375)"/>
<path d="M0 0 C3.79319535 1.55932742 6.11373748 3.94246388 8.9375 6.875 C11.48158652 9.50952545 13.92568121 11.94207051 16.81640625 14.1953125 C17.53699219 14.79085937 18.25757813 15.38640625 19 16 C19 16.66 19 17.32 19 18 C19.66 18 20.32 18 21 18 C20.67 18.66 20.34 19.32 20 20 C14.03533651 14.9454759 8.47780144 9.57504051 3 4 C2.41863281 3.43796875 1.83726562 2.8759375 1.23828125 2.296875 C0 1 0 1 0 0 Z " fill="#3CD089" transform="translate(156,111)"/>
<path d="M0 0 C4.55615774 3.83131446 9.01762051 7.76284054 13.4375 11.75 C13.98180664 12.23380127 14.52611328 12.71760254 15.08691406 13.21606445 C16.43011543 14.43593241 17.72013875 15.71383402 19 17 C19 17.66 19 18.32 19 19 C16.08653407 17.68692751 14.0549021 16.28818412 11.8359375 13.99609375 C11.27132812 13.42052734 10.70671875 12.84496094 10.125 12.25195312 C9.5475 11.65318359 8.97 11.05441406 8.375 10.4375 C7.21839849 9.24650616 6.05964222 8.05759995 4.8984375 6.87109375 C4.38974121 6.34443115 3.88104492 5.81776855 3.35693359 5.27514648 C2.00599895 3.8835783 2.00599895 3.8835783 0 3 C0 2.01 0 1.02 0 0 Z " fill="#66D8A2" transform="translate(115,161)"/>
<path d="M0 0 C0.66 0 1.32 0 2 0 C1.67 1.65 1.34 3.3 1 5 C-2.3 5.66 -5.6 6.32 -9 7 C-9 7.66 -9 8.32 -9 9 C-10.98 9 -12.96 9 -15 9 C-15 8.34 -15 7.68 -15 7 C-14.00097656 6.66226563 -13.00195312 6.32453125 -11.97265625 5.9765625 C-10.66913783 5.52642664 -9.36575957 5.07588475 -8.0625 4.625 C-7.0734668 4.29242188 -7.0734668 4.29242188 -6.06445312 3.953125 C-2.32423336 2.87090848 -2.32423336 2.87090848 0 0 Z " fill="#61D89F" transform="translate(136,239)"/>
<path d="M0 0 C4.70925902 3.02103409 6.73282192 5.55113424 8 11 C7.34 11 6.68 11 6 11 C4.66666667 9 3.33333333 7 2 5 C0.2515605 2.97891823 0.2515605 2.97891823 -2 2 C-5.35133916 2.13678935 -7.27675506 2.39729589 -9.875 4.5625 C-10.24625 5.036875 -10.6175 5.51125 -11 6 C-10.6875 4.125 -10.6875 4.125 -10 2 C-6.23124125 -0.51250583 -4.46849866 -0.53016086 0 0 Z " fill="#55D798" transform="translate(158,27)"/>
<path d="M0 0 C0.66 0.99 1.32 1.98 2 3 C0.43840941 3.48212214 -1.12431928 3.96055873 -2.6875 4.4375 C-3.55761719 4.70433594 -4.42773438 4.97117188 -5.32421875 5.24609375 C-7.87025921 5.96344529 -10.4003423 6.517541 -13 7 C-13 7.66 -13 8.32 -13 9 C-14.65 9 -16.3 9 -18 9 C-18 8.34 -18 7.68 -18 7 C-16.0429132 6.32968281 -14.08428887 5.66385317 -12.125 5 C-11.03445312 4.62875 -9.94390625 4.2575 -8.8203125 3.875 C-6 3 -6 3 -4 3 C-4 2.34 -4 1.68 -4 1 C-2.68 0.67 -1.36 0.34 0 0 Z " fill="#58D599" transform="translate(119,247)"/>
<path d="M0 0 C0.309375 1.5159375 0.309375 1.5159375 0.625 3.0625 C1.89800901 7.64907657 4.74974974 10.6373197 8 14 C3.93398952 14 2.48503297 12.41666592 -0.48046875 9.80078125 C-2.7803818 7.07517735 -2.93044011 4.47799431 -3 1 C-1 0 -1 0 0 0 Z " fill="#6CDBA6" transform="translate(94,152)"/>
<path d="M0 0 C4.48993869 0.58652352 8.22543184 1.7643538 12.375 3.5625 C13.43460938 4.01753906 14.49421875 4.47257813 15.5859375 4.94140625 C16.38257813 5.29074219 17.17921875 5.64007813 18 6 C18 6.66 18 7.32 18 8 C11.76559832 6.41039668 5.83712355 4.72399099 0 2 C0 1.34 0 0.68 0 0 Z " fill="#59D69A" transform="translate(164,251)"/>
<path d="M0 0 C0.66 0 1.32 0 2 0 C1.43831387 4.16396651 0.08591446 6.81929152 -2.3125 10.25 C-2.90675781 11.12140625 -3.50101563 11.9928125 -4.11328125 12.890625 C-6.11414269 15.12761294 -7.07138001 15.66382287 -10 16 C-9.07265428 14.51444617 -8.13275187 13.03672494 -7.1875 11.5625 C-6.40439453 10.32693359 -6.40439453 10.32693359 -5.60546875 9.06640625 C-4 7 -4 7 -1 6 C-0.67 4.02 -0.34 2.04 0 0 Z " fill="#68DBA3" transform="translate(177,59)"/>
<path d="M0 0 C0.89271417 2.41032827 1.03362068 3.84030177 0.5 6.375 C-1.62527732 10.09423532 -4.64997637 12.39343081 -8 15 C-8.66 14.67 -9.32 14.34 -10 14 C-9.52949219 13.57589844 -9.05898438 13.15179688 -8.57421875 12.71484375 C-4.34461679 8.7304361 -1.90636389 5.49481356 0 0 Z " fill="#52D394" transform="translate(274,256)"/>
<path d="M0 0 C0 0.66 0 1.32 0 2 C-5.12325529 4.45489316 -9.33895411 5.50341703 -15 6 C-14.67 5.01 -14.34 4.02 -14 3 C-11.6015625 2.05078125 -11.6015625 2.05078125 -8.625 1.3125 C-7.64789063 1.06113281 -6.67078125 0.80976563 -5.6640625 0.55078125 C-3 0 -3 0 0 0 Z " fill="#5ED79D" transform="translate(69,221)"/>
<path d="M0 0 C0.66 0 1.32 0 2 0 C2.83830296 2.92075397 3.13527361 5.52664783 3.125 8.5625 C3.12757813 9.32691406 3.13015625 10.09132813 3.1328125 10.87890625 C3 13 3 13 2 16 C1.34 16 0.68 16 0 16 C0 10.72 0 5.44 0 0 Z " fill="#5DD79D" transform="translate(165,39)"/>
<path d="M0 0 C0 0.66 0 1.32 0 2 C-1.93356782 2.69848264 -3.87202298 3.38344814 -5.8125 4.0625 C-6.89144531 4.44535156 -7.97039062 4.82820313 -9.08203125 5.22265625 C-12 6 -12 6 -15 5 C-12.56158876 2.56158876 -10.81433885 2.23847249 -7.5 1.375 C-6.5203125 1.11460937 -5.540625 0.85421875 -4.53125 0.5859375 C-2 0 -2 0 0 0 Z " fill="#65D9A0" transform="translate(115,263)"/>
<path d="M0 0 C-0.33 0.99 -0.66 1.98 -1 3 C-5.0916861 4.80795432 -8.55719328 5.21156222 -13 5 C-13 4.34 -13 3.68 -13 3 C-11.2092015 2.49689942 -9.41733089 1.99761372 -7.625 1.5 C-6.62726563 1.2215625 -5.62953125 0.943125 -4.6015625 0.65625 C-2 0 -2 0 0 0 Z " fill="#56D599" transform="translate(99,255)"/>
<path d="M0 0 C-3.22791555 2.1519437 -4.28400809 2.20086443 -8 2 C-8 2.66 -8 3.32 -8 4 C-9.98 4.33 -11.96 4.66 -14 5 C-14 4.01 -14 3.02 -14 2 C-9.15758367 0.66416101 -5.06562383 -0.25328119 0 0 Z " fill="#62D99F" transform="translate(99,269)"/>
<path d="M0 0 C0 0.66 0 1.32 0 2 C-4.62 2.66 -9.24 3.32 -14 4 C-12 1 -12 1 -9.25 0.3125 C-6.13994266 0.01345603 -3.12201686 -0.07433373 0 0 Z " fill="#5ED79B" transform="translate(83,231)"/>
<path d="M0 0 C0.66 0 1.32 0 2 0 C1.67 1.98 1.34 3.96 1 6 C0.01 6.33 -0.98 6.66 -2 7 C-2.33 7.99 -2.66 8.98 -3 10 C-4.98 10.33 -6.96 10.66 -9 11 C-7 9 -7 9 -4 8 C-2.76722873 6.13977928 -2.76722873 6.13977928 -1.8125 3.9375 C-1.46832031 3.20402344 -1.12414062 2.47054687 -0.76953125 1.71484375 C-0.51558594 1.14894531 -0.26164063 0.58304688 0 0 Z " fill="#68D9A3" transform="translate(164,56)"/>
<path d="M0 0 C0.66 0.33 1.32 0.66 2 1 C-1.32850747 4.59478807 -4.98971331 7.22364768 -9 10 C-9.66 9.67 -10.32 9.34 -11 9 C-7.67149253 5.40521193 -4.01028669 2.77635232 0 0 Z " fill="#70DBA8" transform="translate(50,227)"/>
<path d="M0 0 C0.33 0.66 0.66 1.32 1 2 C0.22265625 4.1640625 0.22265625 4.1640625 -0.9375 6.625 C-1.31777344 7.44226563 -1.69804688 8.25953125 -2.08984375 9.1015625 C-2.39019531 9.72804687 -2.69054688 10.35453125 -3 11 C-3.66 11 -4.32 11 -5 11 C-4.67 8.69 -4.34 6.38 -4 4 C-3.34 4 -2.68 4 -2 4 C-1.34 2.68 -0.68 1.36 0 0 Z " fill="#62D89E" transform="translate(38,238)"/>
<path d="M0 0 C0 0.66 0 1.32 0 2 C-1.98 2.33 -3.96 2.66 -6 3 C-6 3.66 -6 4.32 -6 5 C-7.32 5 -8.64 5 -10 5 C-10 4.01 -10 3.02 -10 2 C-3.375 0 -3.375 0 0 0 Z " fill="#57D599" transform="translate(188,221)"/>
<path d="M0 0 C0.66 0 1.32 0 2 0 C2.391875 0.94875 2.78375 1.8975 3.1875 2.875 C5.19793856 6.34127338 6.22699642 6.9802693 10 8 C8.3125 8.8125 8.3125 8.8125 6 9 C2.77272377 6.37314725 0.47246642 4.25219775 0 0 Z " fill="#67D9A3" transform="translate(144,58)"/>
<path d="M0 0 C0.99 0.33 1.98 0.66 3 1 C3 1.66 3 2.32 3 3 C3.928125 3.37125 3.928125 3.37125 4.875 3.75 C7.35068687 5.20628639 7.95125002 6.37812506 9 9 C4.71930097 7.41455592 2.70478088 4.5312417 0 1 C0 0.67 0 0.34 0 0 Z " fill="#61D99F" transform="translate(34,261)"/>
<path d="M0 0 C0.66 0.33 1.32 0.66 2 1 C-1.3 3.31 -4.6 5.62 -8 8 C-8 7.01 -8 6.02 -8 5 C-6.3203125 3.578125 -6.3203125 3.578125 -4.125 2.25 C-3.40570313 1.80140625 -2.68640625 1.3528125 -1.9453125 0.890625 C-1.30335937 0.59671875 -0.66140625 0.3028125 0 0 Z " fill="#73DDAA" transform="translate(59,237)"/>
<path d="M0 0 C1.45947705 0.06006078 2.91779272 0.1488689 4.375 0.25 C5.59316406 0.31960937 5.59316406 0.31960937 6.8359375 0.390625 C9 1 9 1 10.2890625 3.046875 C10.64097656 4.01367188 10.64097656 4.01367188 11 5 C8.69 4.34 6.38 3.68 4 3 C4 2.34 4 1.68 4 1 C2.68 0.67 1.36 0.34 0 0 Z " fill="#63D9A1" transform="translate(241,235)"/>
<path d="M0 0 C4.95 0.99 4.95 0.99 10 2 C10 2.66 10 3.32 10 4 C6.7 3.34 3.4 2.68 0 2 C0 1.34 0 0.68 0 0 Z " fill="#65D8A2" transform="translate(240,221)"/>
<path d="M0 0 C0.66 0 1.32 0 2 0 C1.67 1.65 1.34 3.3 1 5 C-0.98 5.33 -2.96 5.66 -5 6 C-4.67 5.01 -4.34 4.02 -4 3 C-3.01 2.67 -2.02 2.34 -1 2 C-0.67 1.34 -0.34 0.68 0 0 Z " fill="#4AD290" transform="translate(136,239)"/>
<path d="M0 0 C3.31529273 0.98562757 4.74949379 1.65447419 6.8125 4.5 C8 7 8 7 8 9 C7.34 9 6.68 9 6 9 C4.60699818 7.04109119 3.27754554 5.0360882 2 3 C1.34 2.01 0.68 1.02 0 0 Z " fill="#61D79F" transform="translate(158,29)"/>
<path d="M0 0 C0.66 0 1.32 0 2 0 C2 0.66 2 1.32 2 2 C5.96 2.99 5.96 2.99 10 4 C10 4.33 10 4.66 10 5 C3.375 5.25 3.375 5.25 0 3 C0 2.01 0 1.02 0 0 Z " fill="#5DD69C" transform="translate(51,259)"/>
<path d="M0 0 C0.66 0.33 1.32 0.66 2 1 C-0.31 3.31 -2.62 5.62 -5 8 C-5.33 7.01 -5.66 6.02 -6 5 C-4.02 3.35 -2.04 1.7 0 0 Z " fill="#72DBA8" transform="translate(111,133)"/>
<path d="M0 0 C3.81684226 1.55500981 6.19195732 4.03595495 9 7 C6.62051228 6.82374165 5.29774151 6.30280227 3.62109375 4.59765625 C2.37884514 3.09350908 1.18623944 1.54870149 0 0 Z " fill="#6CDAA4" transform="translate(116,181)"/>
<path d="M0 0 C3.57104439 1.87949705 5.54744301 3.17053157 7 7 C4.13302508 5.71480435 2.02392288 4.42870746 0 2 C0 1.34 0 0.68 0 0 Z " fill="#6EDAA6" transform="translate(167,19)"/>
<path d="M0 0 C2.31 0.33 4.62 0.66 7 1 C7 1.66 7 2.32 7 3 C4.69 3 2.38 3 0 3 C0 2.01 0 1.02 0 0 Z " fill="#6DDAA6" transform="translate(217,257)"/>
<path d="M0 0 C-1.32 0.33 -2.64 0.66 -4 1 C-4 1.66 -4 2.32 -4 3 C-5.65 3 -7.3 3 -9 3 C-9 2.34 -9 1.68 -9 1 C-6.04335481 -0.4783226 -3.25770263 -0.06032783 0 0 Z " fill="#48D08E" transform="translate(110,253)"/>
<path d="M0 0 C2 1 2 1 2 1 Z " fill="#7EDEB1" transform="translate(154,231)"/>
<path d="" fill="#8EE3BB" transform="translate(0,0)"/>
<path d="" fill="#84E2B5" transform="translate(0,0)"/>
<path d="" fill="#7EE2B2" transform="translate(0,0)"/>
<path d="" fill="#89E2B8" transform="translate(0,0)"/>
<path d="" fill="#87E2B7" transform="translate(0,0)"/>
<path d="" fill="#8CE3B9" transform="translate(0,0)"/>
<path d="" fill="#4BD693" transform="translate(0,0)"/>
<path d="" fill="#44D08D" transform="translate(0,0)"/>
<path d="" fill="#85E1B5" transform="translate(0,0)"/>
<path d="" fill="#7DE0B0" transform="translate(0,0)"/>
<path d="" fill="#56D89A" transform="translate(0,0)"/>
<path d="" fill="#42D08C" transform="translate(0,0)"/>
<path d="" fill="#5DDA9E" transform="translate(0,0)"/>
<path d="" fill="#52D495" transform="translate(0,0)"/>
<path d="" fill="#8CE3B9" transform="translate(0,0)"/>
<path d="" fill="#7FE1B2" transform="translate(0,0)"/>
<path d="" fill="#73DDAA" transform="translate(0,0)"/>
<path d="" fill="#78DDAD" transform="translate(0,0)"/>
<path d="" fill="#7CDFB0" transform="translate(0,0)"/>
<path d="" fill="#8CE4BA" transform="translate(0,0)"/>
<path d="" fill="#92E4BC" transform="translate(0,0)"/>
<path d="" fill="#88E4B7" transform="translate(0,0)"/>
<path d="" fill="#87E2B6" transform="translate(0,0)"/>
<path d="" fill="#87E0B6" transform="translate(0,0)"/>
<path d="" fill="#77DDAC" transform="translate(0,0)"/>
<path d="" fill="#62D9A0" transform="translate(0,0)"/>
<path d="" fill="#8CE2B9" transform="translate(0,0)"/>
<path d="" fill="#7CDFB0" transform="translate(0,0)"/>
<path d="" fill="#70DCA8" transform="translate(0,0)"/>
<path d="" fill="#8AE2B8" transform="translate(0,0)"/>
<path d="" fill="#7DE0B1" transform="translate(0,0)"/>
<path d="" fill="#42CF8B" transform="translate(0,0)"/>
<path d="" fill="#89E1B7" transform="translate(0,0)"/>
<path d="" fill="#55D699" transform="translate(0,0)"/>
<path d="" fill="#7FE0B1" transform="translate(0,0)"/>
<path d="" fill="#8AE6BA" transform="translate(0,0)"/>
<path d="" fill="#81E0B2" transform="translate(0,0)"/>
<path d="" fill="#8EE2BA" transform="translate(0,0)"/>
<path d="" fill="#73DCA9" transform="translate(0,0)"/>
<path d="" fill="#71DDA9" transform="translate(0,0)"/>
<path d="" fill="#81E0B2" transform="translate(0,0)"/>
<path d="" fill="#85E1B5" transform="translate(0,0)"/>
<path d="" fill="#67DCA4" transform="translate(0,0)"/>
<path d="" fill="#8FE2BA" transform="translate(0,0)"/>
<path d="" fill="#6FDBA7" transform="translate(0,0)"/>
<path d="" fill="#67D9A2" transform="translate(0,0)"/>
<path d="" fill="#53D496" transform="translate(0,0)"/>
<path d="" fill="#73DDAA" transform="translate(0,0)"/>
<path d="" fill="#93E3BD" transform="translate(0,0)"/>
<path d="" fill="#7ADEAD" transform="translate(0,0)"/>
<path d="" fill="#53D798" transform="translate(0,0)"/>
<path d="" fill="#7CDEAF" transform="translate(0,0)"/>
<path d="" fill="#42D28C" transform="translate(0,0)"/>
<path d="" fill="#91E3BC" transform="translate(0,0)"/>
<path d="" fill="#7BDEAE" transform="translate(0,0)"/>
<path d="" fill="#77DFAC" transform="translate(0,0)"/>
<path d="" fill="#79DDAD" transform="translate(0,0)"/>
<path d="" fill="#8FE3BA" transform="translate(0,0)"/>
<path d="" fill="#59D69A" transform="translate(0,0)"/>
<path d="" fill="#64DBA2" transform="translate(0,0)"/>
<path d="" fill="#79DEAD" transform="translate(0,0)"/>
<path d="" fill="#8DE3B9" transform="translate(0,0)"/>
<path d="" fill="#8AE2B8" transform="translate(0,0)"/>
<path d="" fill="#67D9A2" transform="translate(0,0)"/>
<path d="" fill="#8DE3BA" transform="translate(0,0)"/>
<path d="" fill="#6BDAA5" transform="translate(0,0)"/>
<path d="" fill="#92E5BD" transform="translate(0,0)"/>
<path d="" fill="#72DFAB" transform="translate(0,0)"/>
<path d="" fill="#84E1B4" transform="translate(0,0)"/>
<path d="" fill="#81E0B3" transform="translate(0,0)"/>
<path d="" fill="#8FE4BC" transform="translate(0,0)"/>
<path d="" fill="#82E0B3" transform="translate(0,0)"/>
<path d="" fill="#80DFB2" transform="translate(0,0)"/>
<path d="" fill="#89E0B7" transform="translate(0,0)"/>
<path d="" fill="#66D8A2" transform="translate(0,0)"/>
<path d="" fill="#6EDBA7" transform="translate(0,0)"/>
<path d="" fill="#5AD59B" transform="translate(0,0)"/>
<path d="" fill="#39CD86" transform="translate(0,0)"/>
<path d="" fill="#92E4BD" transform="translate(0,0)"/>
<path d="" fill="#8EE3BA" transform="translate(0,0)"/>
<path d="" fill="#81DFB2" transform="translate(0,0)"/>
<path d="" fill="#65D8A1" transform="translate(0,0)"/>
<path d="" fill="#5ED79C" transform="translate(0,0)"/>
<path d="" fill="#5CD69B" transform="translate(0,0)"/>
<path d="" fill="#7CDEAF" transform="translate(0,0)"/>
<path d="" fill="#77DDAC" transform="translate(0,0)"/>
<path d="" fill="#6FDBA7" transform="translate(0,0)"/>
<path d="" fill="#6FDBA7" transform="translate(0,0)"/>
<path d="" fill="#83E0B4" transform="translate(0,0)"/>
<path d="" fill="#92E4BD" transform="translate(0,0)"/>
<path d="" fill="#79DEAE" transform="translate(0,0)"/>
<path d="" fill="#83E0B3" transform="translate(0,0)"/>
<path d="" fill="#80DEB2" transform="translate(0,0)"/>
<path d="" fill="#8EE3BA" transform="translate(0,0)"/>
<path d="" fill="#83E0B3" transform="translate(0,0)"/>
<path d="" fill="#92E4BC" transform="translate(0,0)"/>
<path d="" fill="#93E4BD" transform="translate(0,0)"/>
<path d="" fill="#80DEB1" transform="translate(0,0)"/>
<path d="" fill="#93E4BD" transform="translate(0,0)"/>
<path d="" fill="#91E3BB" transform="translate(0,0)"/>
<path d="" fill="#8AE2B7" transform="translate(0,0)"/>
<path d="" fill="#56D598" transform="translate(0,0)"/>
<path d="" fill="#83E0B3" transform="translate(0,0)"/>
<path d="" fill="#55D598" transform="translate(0,0)"/>
<path d="" fill="#80DFB2" transform="translate(0,0)"/>
<path d="" fill="#56D698" transform="translate(0,0)"/>
<path d="" fill="#7BDEAE" transform="translate(0,0)"/>
<path d="" fill="#55D598" transform="translate(0,0)"/>
<path d="" fill="#57D699" transform="translate(0,0)"/>
<path d="" fill="#5AD69A" transform="translate(0,0)"/>
<path d="" fill="#5AD69A" transform="translate(0,0)"/>
<path d="" fill="#5AD69B" transform="translate(0,0)"/>
<path d="" fill="#71DBA9" transform="translate(0,0)"/>
<path d="" fill="#74DCAB" transform="translate(0,0)"/>
<path d="" fill="#5BD69B" transform="translate(0,0)"/>
<path d="" fill="#7DDEAE" transform="translate(0,0)"/>
<path d="" fill="#6FDBA8" transform="translate(0,0)"/>
<path d="" fill="#5BD69B" transform="translate(0,0)"/>
<path d="" fill="#91E3BB" transform="translate(0,0)"/>
<path d="" fill="#78DDAD" transform="translate(0,0)"/>
<path d="" fill="#5CD69C" transform="translate(0,0)"/>
<path d="" fill="#6BDAA4" transform="translate(0,0)"/>
<path d="" fill="#65D9A1" transform="translate(0,0)"/>
<path d="" fill="#74DCAA" transform="translate(0,0)"/>
<path d="" fill="#5ED79D" transform="translate(0,0)"/>
<path d="" fill="#7CDFAF" transform="translate(0,0)"/>
<path d="" fill="#5FD79D" transform="translate(0,0)"/>
<path d="" fill="#93E4BD" transform="translate(0,0)"/>
<path d="" fill="#76DDAB" transform="translate(0,0)"/>
<path d="" fill="#5ED79D" transform="translate(0,0)"/>
<path d="" fill="#7ADEAE" transform="translate(0,0)"/>
<path d="" fill="#60D89E" transform="translate(0,0)"/>
<path d="" fill="#63D9A0" transform="translate(0,0)"/>
<path d="" fill="#70DBA8" transform="translate(0,0)"/>
<path d="" fill="#91E3BC" transform="translate(0,0)"/>
<path d="" fill="#76DDAC" transform="translate(0,0)"/>
<path d="" fill="#93E4BD" transform="translate(0,0)"/>
<path d="" fill="#6EDAA7" transform="translate(0,0)"/>
<path d="" fill="#90E3BC" transform="translate(0,0)"/>
<path d="" fill="#76DDAB" transform="translate(0,0)"/>
<path d="" fill="#91E3BC" transform="translate(0,0)"/>
<path d="" fill="#62D8A0" transform="translate(0,0)"/>
<path d="" fill="#7CDEAF" transform="translate(0,0)"/>
<path d="" fill="#67D9A3" transform="translate(0,0)"/>
<path d="" fill="#7DDFB0" transform="translate(0,0)"/>
<path d="" fill="#61D89F" transform="translate(0,0)"/>
<path d="" fill="#68DAA4" transform="translate(0,0)"/>
<path d="" fill="#70DBA8" transform="translate(0,0)"/>
<path d="" fill="#8EE3BA" transform="translate(0,0)"/>
<path d="" fill="#6EDBA7" transform="translate(0,0)"/>
<path d="" fill="#78DDAD" transform="translate(0,0)"/>
<path d="" fill="#8DE3BA" transform="translate(0,0)"/>
<path d="" fill="#72DBA9" transform="translate(0,0)"/>
<path d="" fill="#83E0B4" transform="translate(0,0)"/>
<path d="" fill="#62D8A0" transform="translate(0,0)"/>
<path d="" fill="#8EE3BA" transform="translate(0,0)"/>
<path d="" fill="#6CD9A5" transform="translate(0,0)"/>
<path d="" fill="#76DDAC" transform="translate(0,0)"/>
<path d="" fill="#8DE2B9" transform="translate(0,0)"/>
<path d="" fill="#86E0B5" transform="translate(0,0)"/>
<path d="" fill="#8DE2BA" transform="translate(0,0)"/>
<path d="" fill="#7CDEAF" transform="translate(0,0)"/>
<path d="" fill="#65D9A2" transform="translate(0,0)"/>
<path d="" fill="#8AE1B8" transform="translate(0,0)"/>
<path d="" fill="#7DDFB0" transform="translate(0,0)"/>
<path d="" fill="#68D9A3" transform="translate(0,0)"/>
<path d="" fill="#8AE1B8" transform="translate(0,0)"/>
<path d="" fill="#7FDFB1" transform="translate(0,0)"/>
<path d="" fill="#65D9A1" transform="translate(0,0)"/>
<path d="" fill="#8AE1B8" transform="translate(0,0)"/>
<path d="" fill="#7BDEAF" transform="translate(0,0)"/>
<path d="" fill="#6AD9A4" transform="translate(0,0)"/>
<path d="" fill="#8AE1B7" transform="translate(0,0)"/>
<path d="" fill="#74DEAB" transform="translate(0,0)"/>
<path d="" fill="#66D9A2" transform="translate(0,0)"/>
<path d="" fill="#6FDBA7" transform="translate(0,0)"/>
<path d="" fill="#88E1B7" transform="translate(0,0)"/>
<path d="" fill="#66D8A2" transform="translate(0,0)"/>
<path d="" fill="#88E1B6" transform="translate(0,0)"/>
<path d="" fill="#6EDBA6" transform="translate(0,0)"/>
<path d="" fill="#92E4BC" transform="translate(0,0)"/>
<path d="" fill="#8FE3BB" transform="translate(0,0)"/>
<path d="" fill="#63D9A0" transform="translate(0,0)"/>
<path d="" fill="#88E2B7" transform="translate(0,0)"/>
<path d="" fill="#6BDBA5" transform="translate(0,0)"/>
<path d="" fill="#90E3BB" transform="translate(0,0)"/>
<path d="" fill="#65DBA2" transform="translate(0,0)"/>
<path d="" fill="#6BDCA5" transform="translate(0,0)"/>
<path d="" fill="#74DCAA" transform="translate(0,0)"/>
<path d="" fill="#68DBA4" transform="translate(0,0)"/>
<path d="" fill="#67D9A2" transform="translate(0,0)"/>
<path d="" fill="#68D9A3" transform="translate(0,0)"/>
<path d="" fill="#8AE2B8" transform="translate(0,0)"/>
<path d="" fill="#67D9A2" transform="translate(0,0)"/>
<path d="" fill="#87E1B6" transform="translate(0,0)"/>
<path d="" fill="#69DBA3" transform="translate(0,0)"/>
<path d="" fill="#8CE3B9" transform="translate(0,0)"/>
<path d="" fill="#6FDDA7" transform="translate(0,0)"/>
<path d="" fill="#69DBA4" transform="translate(0,0)"/>
<path d="" fill="#61D79E" transform="translate(0,0)"/>
<path d="" fill="#6FDDA8" transform="translate(0,0)"/>
<path d="" fill="#67D9A2" transform="translate(0,0)"/>
<path d="" fill="#83E0B4" transform="translate(0,0)"/>
<path d="" fill="#60D79D" transform="translate(0,0)"/>
<path d="" fill="#8EE3BA" transform="translate(0,0)"/>
<path d="" fill="#88E1B7" transform="translate(0,0)"/>
<path d="" fill="#65D8A1" transform="translate(0,0)"/>
<path d="" fill="#85E0B5" transform="translate(0,0)"/>
<path d="" fill="#87E1B5" transform="translate(0,0)"/>
<path d="" fill="#86E1B5" transform="translate(0,0)"/>
<path d="" fill="#3ECF89" transform="translate(0,0)"/>
<path d="" fill="#63D8A0" transform="translate(0,0)"/>
<path d="" fill="#3ACF87" transform="translate(0,0)"/>
<path d="" fill="#6FDDA8" transform="translate(0,0)"/>
<path d="" fill="#7FE0B1" transform="translate(0,0)"/>
<path d="" fill="#3CD088" transform="translate(0,0)"/>
<path d="" fill="#78DFAD" transform="translate(0,0)"/>
<path d="" fill="#85E0B4" transform="translate(0,0)"/>
<path d="" fill="#3CD089" transform="translate(0,0)"/>
<path d="" fill="#71DDA9" transform="translate(0,0)"/>
<path d="" fill="#80DFB1" transform="translate(0,0)"/>
<path d="" fill="#3ACF88" transform="translate(0,0)"/>
<path d="" fill="#78DFAD" transform="translate(0,0)"/>
<path d="" fill="#84E0B3" transform="translate(0,0)"/>
<path d="" fill="#61D79F" transform="translate(0,0)"/>
<path d="" fill="#73DEAA" transform="translate(0,0)"/>
<path d="" fill="#5DD69C" transform="translate(0,0)"/>
<path d="" fill="#5AD59A" transform="translate(0,0)"/>
<path d="" fill="#81E0B2" transform="translate(0,0)"/>
<path d="" fill="#42D18C" transform="translate(0,0)"/>
<path d="" fill="#76DFAD" transform="translate(0,0)"/>
<path d="" fill="#3CCF88" transform="translate(0,0)"/>
<path d="" fill="#7AE0AF" transform="translate(0,0)"/>
<path d="" fill="#41D18B" transform="translate(0,0)"/>
<path d="" fill="#77DFAD" transform="translate(0,0)"/>
<path d="" fill="#60D79D" transform="translate(0,0)"/>
<path d="" fill="#3DD089" transform="translate(0,0)"/>
<path d="" fill="#7BE0AF" transform="translate(0,0)"/>
<path d="" fill="#52D495" transform="translate(0,0)"/>
<path d="" fill="#78DFAD" transform="translate(0,0)"/>
<path d="" fill="#5FD79D" transform="translate(0,0)"/>
<path d="" fill="#7BDEAF" transform="translate(0,0)"/>
<path d="" fill="#53D395" transform="translate(0,0)"/>
<path d="" fill="#79DEAD" transform="translate(0,0)"/>
<path d="" fill="#5DD69C" transform="translate(0,0)"/>
<path d="" fill="#7CDEAF" transform="translate(0,0)"/>
<path d="" fill="#76DDAC" transform="translate(0,0)"/>
<path d="" fill="#54D496" transform="translate(0,0)"/>
<path d="" fill="#7BDEAF" transform="translate(0,0)"/>
<path d="" fill="#5CD69B" transform="translate(0,0)"/>
<path d="" fill="#77DDAC" transform="translate(0,0)"/>
<path d="" fill="#52D395" transform="translate(0,0)"/>
<path d="" fill="#7ADDAE" transform="translate(0,0)"/>
<path d="" fill="#77DDAC" transform="translate(0,0)"/>
<path d="" fill="#79DDAD" transform="translate(0,0)"/>
<path d="" fill="#58D599" transform="translate(0,0)"/>
<path d="" fill="#55D497" transform="translate(0,0)"/>
<path d="" fill="#8FE3BB" transform="translate(0,0)"/>
<path d="" fill="#75DEAB" transform="translate(0,0)"/>
<path d="" fill="#7EDFB0" transform="translate(0,0)"/>
<path d="" fill="#71DDA8" transform="translate(0,0)"/>
<path d="" fill="#7FE1B1" transform="translate(0,0)"/>
<path d="" fill="#5ED89D" transform="translate(0,0)"/>
<path d="" fill="#7EE0B1" transform="translate(0,0)"/>
<path d="" fill="#4CD493" transform="translate(0,0)"/>
<path d="" fill="#8FE4BA" transform="translate(0,0)"/>
<path d="" fill="#60D79E" transform="translate(0,0)"/>
<path d="" fill="#61D79F" transform="translate(0,0)"/>
<path d="" fill="#5BD89C" transform="translate(0,0)"/>
<path d="" fill="#88E3B7" transform="translate(0,0)"/>
<path d="" fill="#90E3BB" transform="translate(0,0)"/>
<path d="" fill="#8AE3B8" transform="translate(0,0)"/>
<path d="" fill="#54D497" transform="translate(0,0)"/>
<path d="" fill="#8DE3BA" transform="translate(0,0)"/>
<path d="" fill="#6ADCA5" transform="translate(0,0)"/>
<path d="" fill="#72DCAA" transform="translate(0,0)"/>
<path d="" fill="#93E4BD" transform="translate(0,0)"/>
<path d="" fill="#92E4BD" transform="translate(0,0)"/>
<path d="" fill="#73DDAA" transform="translate(0,0)"/>
<path d="" fill="#83E1B3" transform="translate(0,0)"/>
<path d="" fill="#91E4BC" transform="translate(0,0)"/>
<path d="" fill="#8AE4B9" transform="translate(0,0)"/>
<path d="" fill="#6FDBA7" transform="translate(0,0)"/>
<path d="" fill="#7DE1B0" transform="translate(0,0)"/>
<path d="" fill="#91E5BC" transform="translate(0,0)"/>
<path d="" fill="#8EE3BB" transform="translate(0,0)"/>
<path d="" fill="#66D9A2" transform="translate(0,0)"/>
<path d="" fill="#7FDFB2" transform="translate(0,0)"/>
<path d="" fill="#60D79E" transform="translate(0,0)"/>
<path d="" fill="#59D89B" transform="translate(0,0)"/>
<path d="" fill="#8EE3BA" transform="translate(0,0)"/>
<path d="" fill="#89E4B8" transform="translate(0,0)"/>
<path d="" fill="#76DEAC" transform="translate(0,0)"/>
<path d="" fill="#93E4BD" transform="translate(0,0)"/>
<path d="" fill="#5BD79B" transform="translate(0,0)"/>
<path d="" fill="#7DE0B1" transform="translate(0,0)"/>
<path d="" fill="#40D08B" transform="translate(0,0)"/>
<path d="" fill="#6EDCA7" transform="translate(0,0)"/>
<path d="" fill="#66D9A2" transform="translate(0,0)"/>
<path d="" fill="#8AE1B8" transform="translate(0,0)"/>
<path d="" fill="#54D497" transform="translate(0,0)"/>
<path d="" fill="#8FE2BA" transform="translate(0,0)"/>
</svg>
