<?xml version="1.0" encoding="UTF-8"?>
<svg id="Calque_1" xmlns="http://www.w3.org/2000/svg" viewBox="0 0 700 298.32">
  <defs>
    <style>
      .cls-1 {
        fill: #fff;
      }
    </style>
  </defs>
  <path class="cls-1" d="M258.62,228.74c-4.17-3.63-9.23-5.96-14.5-7.9-26.14-9.64-52.07-8.76-77.24,2.62-11.03,4.99-20.77,5.15-31.77.04-12.59-5.86-26.06-9.65-40.48-9.17-19.49,1.55-39.19,2.79-54.01,17.58-6.8,6.79-9.41,15.12-5.48,24.17,3.79,8.72,11.03,13.87,20.82,14.74,9.04.8,18.01.31,26.96-1.96,19.65-4.99,38.46-12.11,56.87-20.19,7.58-3.33,14.39-3.65,21.98-.14,9.11,4.21,18.49,7.95,27.99,11.25,17.69,6.15,35.32,12.87,54.77,11.3,11.13-.9,20.34-7.51,23.35-17.3,3.22-10.44-1.61-18.35-9.28-25.02ZM121.27,240.73c-16.26,6.22-32.27,13.28-49.8,15.82-2.42.35-4.83.39-7.25.37-5.9-.06-12.61.6-14.47-6.66-1.97-7.69,3.9-11.45,9.76-14.7,2.07-1.15,4.62-1.43,6.56-2.95,18.14-6.08,36.28-6.15,54.44-.08,3.41,2.48,8.08,5.41.77,8.2ZM254.21,250.22c-1.93,6.57-11.6,9.77-23.39,7.53-10.51-2-20.89-4.48-30.69-8.79-8.23-3.88-17.03-6.41-25.35-10.05-.84-4.83,2.86-5.48,6.3-6.38,18.93-5.4,37.84-4.23,56.74.18,12.25,4.42,18.33,10.92,16.4,17.51Z"/>
  <path class="cls-1" d="M207.05,145.48c-15.73-15.29-31.55-30.49-47.26-45.8-6.23-6.07-12.02-5.57-18.04.31-15.2,14.85-30.47,29.64-45.8,44.36-6.25,6-5.87,11.55.24,17.4,15.85,15.17,31.65,30.39,47.32,45.74,5.31,5.21,9.89,5.01,15.12-.13,16.14-15.84,32.49-31.49,48.72-47.25,1.96-1.9,3.98-3.84,4.05-6.82-.13-3.29-2.15-5.66-4.37-7.81ZM188.78,159.57c-10.29,10-20.75,19.85-30.88,30-5.06,5.07-9.23,4.59-14.06-.21-10.17-10.12-20.48-20.11-30.94-29.94-4.44-4.17-4.52-7.47-.06-11.78,10.56-10.2,20.75-20.76,31.08-31.18,3.69-3.73,7.5-6.32,12.37-1.61,11.29,10.94,22.62,21.83,33.84,32.84,1.39,1.37,2.18,3.31,2.96,4.55-.26,3.59-2.37,5.44-4.32,7.33Z"/>
  <path class="cls-1" d="M152.89,16.77c-12.75-1.25-23.26,9.04-26.65,26.09-.2.99-.42,1.98-.53,2.99-1.95,17.97,11.89,34.59,27.75,33.32,12.82-1.03,22.68-14.22,22.96-30.72.26-16.04-10.4-30.39-23.52-31.68ZM161.73,53.22c-.84,4.36-2.87,8.12-5.64,11.57-7.25,4.58-10.97-.54-13.95-5.35-4.8-7.77-1.66-22.36,5.59-28.93,11.18,1.49,16.42,10.06,14,22.71Z"/>
  <path class="cls-1" d="M337.97,85.65c0-23.45,18-40.22,42.22-40.22,13.44,0,24.66,4.88,32,13.78l-11.56,10.67c-5.22-6.01-11.77-9.11-19.55-9.11-14.55,0-24.89,10.21-24.89,24.89s10.34,24.89,24.89,24.89c7.78,0,14.33-3.11,19.55-9.23l11.56,10.67c-7.33,9-18.55,13.89-32.11,13.89-24.11,0-42.11-16.77-42.11-40.21Z"/>
  <path class="cls-1" d="M499.68,110.08v14.45h-60.22V46.76h58.77v14.45h-40.88v16.88h36.11v14h-36.11v17.99h42.33Z"/>
  <path class="cls-1" d="M528.11,116.87l6.11-13.56c6.55,4.78,16.33,8.11,25.66,8.11,10.67,0,15-3.56,15-8.33,0-14.56-45.22-4.56-45.22-33.44,0-13.22,10.67-24.22,32.77-24.22,9.77,0,19.77,2.33,26.99,6.88l-5.55,13.67c-7.22-4.12-14.66-6.12-21.55-6.12-10.67,0-14.78,4-14.78,8.89,0,14.33,45.22,4.44,45.22,32.99,0,13-10.77,24.11-33,24.11-12.33,0-24.77-3.66-31.66-8.99Z"/>
  <path class="cls-1" d="M621.81,46.76h18v77.77h-18V46.76Z"/>
  <path class="cls-1" d="M408.29,224.72v15.17h-70.32v-12.07l44.12-53.2h-43.2v-15.17h67.67v12.07l-44,53.2h45.73Z"/>
  <path class="cls-1" d="M520.37,224.94v14.94h-62.27v-80.43h60.78v14.94h-42.28v17.46h37.34v14.48h-37.34v18.61h43.78Z"/>
  <path class="cls-1" d="M643.32,159.45v80.43h-15.28l-40.1-48.84v48.84h-18.38v-80.43h15.39l39.99,48.84v-48.84h18.38Z"/>
</svg>